M48
; DRILL file {KiCad (5.1.4-0)} date Wednesday, April 14, 2021 at 10:14:31 PM
; FORMAT={-:-/ absolute / inch / decimal}
; #@! TF.CreationDate,2021-04-14T22:14:31-04:00
; #@! TF.GenerationSoftware,Kicad,Pcbnew,(5.1.4-0)
; #@! TF.FileFunction,NonPlated,1,2,NPTH
FMAT,2
INCH
T1C0.0256
T2C0.0689
T3C0.1200
T4C0.1570
%
G90
G05
T1
X11.1957Y-1.1154
X11.4232Y-1.1154
T2
X1.675Y-1.3125
X2.075Y-1.3125
X2.8Y-3.5625
X3.2Y-3.5625
X1.0188Y-3.5625
X6.925Y-1.3125
X7.325Y-1.3125
X1.4187Y-3.5625
X0.925Y-2.0625
X1.325Y-2.0625
X12.175Y-2.8125
X12.575Y-2.8125
X12.925Y-1.3125
X5.425Y-2.0625
X5.825Y-2.0625
X5.425Y-2.8125
X13.325Y-1.3125
X13.675Y-3.5625
X14.075Y-3.5625
X12.175Y-2.0625
X12.575Y-2.0625
X3.925Y-2.8125
X4.325Y-2.8125
X5.825Y-2.8125
X0.925Y-1.3125
X4.675Y-2.8125
X9.175Y-3.5625
X9.575Y-3.5625
X5.075Y-2.8125
X4.675Y-2.0625
X12.575Y-1.3125
X1.325Y-1.3125
X3.575Y-2.8125
X6.175Y-1.3125
X6.575Y-1.3125
X0.925Y-3.5625
X1.325Y-3.5625
X3.175Y-2.8125
X5.425Y-1.3125
X5.825Y-1.3125
X4.325Y-2.0625
X12.175Y-1.3125
X5.075Y-2.0625
X3.925Y-2.0625
X9.925Y-2.8125
X10.325Y-2.8125
X12.2Y-3.9375
X9.175Y-2.8125
X9.575Y-2.8125
X9.175Y-1.3125
X9.175Y-2.0625
X4.675Y-1.3125
X9.575Y-1.3125
X12.925Y-3.5625
X13.325Y-3.5625
X9.575Y-2.0625
X11.8Y-3.9375
X5.075Y-1.3125
X9.925Y-2.0625
X10.325Y-2.0625
X10.3Y-3.9375
X10.7Y-3.9375
X8.425Y-2.0625
X8.825Y-2.0625
X8.425Y-2.8125
X8.825Y-2.8125
X2.425Y-2.8125
X2.825Y-2.8125
X3.175Y-2.0625
X3.575Y-2.0625
X11.05Y-3.9375
X11.45Y-3.9375
X8.425Y-1.3125
X0.925Y-2.8125
X3.925Y-1.3125
X4.325Y-1.3125
X8.825Y-1.3125
X6.175Y-2.8125
X6.575Y-2.8125
X9.0812Y-3.5625
X9.4812Y-3.5625
X5.9875Y-3.5625
X6.3875Y-3.5625
X5.425Y-2.8125
X4.7Y-3.5625
X4.3Y-3.5625
X5.425Y-2.0625
X5.825Y-2.0625
X2.8937Y-3.5625
X10.325Y-1.3125
X2.075Y-2.8125
X3.2937Y-3.5625
X5.825Y-2.8125
X9.925Y-1.3125
X2.425Y-2.0625
X5.05Y-3.5625
X5.45Y-3.5625
X1.675Y-2.8125
X2.825Y-2.0625
X7.675Y-2.0625
X8.075Y-2.0625
X5.425Y-1.3125
X5.825Y-1.3125
X13.675Y-2.8125
X14.075Y-2.8125
X1.325Y-2.8125
X12.925Y-2.8125
X13.325Y-2.8125
X1.9563Y-3.5625
X2.3562Y-3.5625
X12.925Y-2.8125
X13.325Y-2.8125
X12.925Y-1.3125
X13.325Y-1.3125
X12.925Y-2.0625
X13.325Y-2.0625
X7.675Y-2.8125
X8.075Y-2.8125
X3.175Y-1.3125
X3.575Y-1.3125
X8.1437Y-3.5625
X8.5437Y-3.5625
X6.925Y-2.0625
X7.325Y-2.0625
X6.925Y-2.8125
X7.325Y-2.8125
X2.425Y-1.3125
X2.825Y-1.3125
X6.55Y-3.5625
X6.95Y-3.5625
X7.675Y-1.3125
X1.675Y-2.0625
X6.175Y-2.0625
X13.325Y-2.0625
X11.05Y-3.1875
X11.45Y-3.1875
X12.925Y-2.0625
X13.675Y-1.3125
X14.075Y-1.3125
X2.075Y-2.0625
X6.575Y-2.0625
X8.075Y-1.3125
X13.675Y-2.0625
X14.075Y-2.0625
T3
X3.9375Y-3.2875
X8.4375Y-3.2875
X4.875Y-2.5375
X6.375Y-1.7875
X4.875Y-1.0375
X3.75Y-3.2875
X5.25Y-3.2875
X2.625Y-3.2875
X7.875Y-3.2875
X6.375Y-2.5375
X4.875Y-1.7875
X6.375Y-1.0375
X12.375Y-2.5375
X13.875Y-2.5375
X12.375Y-1.0375
X13.875Y-1.0375
X6.0Y-3.2875
X7.5Y-3.2875
X12.375Y-1.7875
X13.875Y-1.7875
T4
X3.375Y-1.3125
X8.3438Y-3.5625
X7.125Y-2.0625
X3.375Y-2.8125
X7.125Y-2.8125
X4.125Y-2.0625
X2.625Y-1.3125
X6.375Y-2.0625
X1.875Y-2.0625
X11.25Y-3.1875
X12.375Y-2.3875
X13.125Y-2.0625
X13.875Y-2.3875
X12.375Y-2.8125
X5.625Y-2.8125
X13.125Y-1.3125
X5.625Y-2.0625
X13.875Y-1.3125
X1.2188Y-3.5625
X1.125Y-2.0625
X6.0Y-3.8875
X6.75Y-3.5625
X7.5Y-3.8875
X7.875Y-1.3125
X12.375Y-2.0625
X12.375Y-1.3125
X6.375Y-1.3125
X13.875Y-3.5625
X4.875Y-2.8125
X4.125Y-2.8125
X4.875Y-2.0625
X1.875Y-1.3125
X3.0Y-3.5625
X5.625Y-1.3125
X7.125Y-1.3125
X9.375Y-3.5625
X13.875Y-2.0625
X1.125Y-3.5625
X1.125Y-1.3125
X9.375Y-1.3125
X10.125Y-2.8125
X13.125Y-3.5625
X9.375Y-2.0625
X2.625Y-2.8125
X12.0Y-3.9375
X10.5Y-3.9375
X11.25Y-3.9375
X9.375Y-2.8125
X4.875Y-1.3125
X10.125Y-2.0625
X3.375Y-2.0625
X4.125Y-1.3125
X8.625Y-1.3125
X8.625Y-2.0625
X8.625Y-2.8125
X6.375Y-2.8125
X9.2812Y-3.5625
X3.9375Y-3.8875
X6.1875Y-3.5625
X8.4375Y-3.8875
X4.875Y-3.1375
X5.625Y-2.8125
X7.875Y-2.0625
X2.625Y-2.0625
X6.375Y-1.6375
X12.375Y-3.1375
X13.125Y-2.8125
X13.875Y-3.1375
X7.875Y-2.8125
X1.875Y-2.8125
X5.625Y-2.0625
X4.875Y-1.6375
X4.5Y-3.5625
X6.375Y-3.1375
X3.75Y-3.8875
X5.25Y-3.8875
X13.875Y-2.8125
X3.0938Y-3.5625
X5.625Y-1.3125
X2.625Y-3.8875
X5.25Y-3.5625
X7.875Y-3.8875
X4.875Y-2.3875
X6.375Y-2.3875
X1.125Y-2.8125
X13.125Y-2.8125
X2.1562Y-3.5625
X10.125Y-1.3125
X12.375Y-1.6375
X13.125Y-1.3125
X13.875Y-1.6375
X13.125Y-2.0625
T0
M30
