G04 #@! TF.GenerationSoftware,KiCad,Pcbnew,(5.1.4-0)*
G04 #@! TF.CreationDate,2021-04-14T22:14:25-04:00*
G04 #@! TF.ProjectId,gorthage-truck,676f7274-6861-4676-952d-747275636b2e,rev?*
G04 #@! TF.SameCoordinates,Original*
G04 #@! TF.FileFunction,Paste,Bot*
G04 #@! TF.FilePolarity,Positive*
%FSLAX46Y46*%
G04 Gerber Fmt 4.6, Leading zero omitted, Abs format (unit mm)*
G04 Created by KiCad (PCBNEW (5.1.4-0)) date 2021-04-14 22:14:25*
%MOMM*%
%LPD*%
G04 APERTURE LIST*
%ADD10R,1.400000X1.200000*%
%ADD11R,0.550000X1.500000*%
%ADD12R,1.500000X0.550000*%
%ADD13R,0.900000X1.200000*%
%ADD14C,0.100000*%
%ADD15C,1.025000*%
%ADD16C,1.000000*%
%ADD17C,0.600000*%
%ADD18C,0.975000*%
G04 APERTURE END LIST*
D10*
X270441240Y-59874520D03*
X272641240Y-59874520D03*
X272641240Y-58174520D03*
X270441240Y-58174520D03*
D11*
X275033240Y-42275520D03*
X274233240Y-42275520D03*
X273433240Y-42275520D03*
X272633240Y-42275520D03*
X271833240Y-42275520D03*
X271033240Y-42275520D03*
X270233240Y-42275520D03*
X269433240Y-42275520D03*
X268633240Y-42275520D03*
X267833240Y-42275520D03*
X267033240Y-42275520D03*
D12*
X265333240Y-43975520D03*
X265333240Y-44775520D03*
X265333240Y-45575520D03*
X265333240Y-46375520D03*
X265333240Y-47175520D03*
X265333240Y-47975520D03*
X265333240Y-48775520D03*
X265333240Y-49575520D03*
X265333240Y-50375520D03*
X265333240Y-51175520D03*
X265333240Y-51975520D03*
D11*
X267033240Y-53675520D03*
X267833240Y-53675520D03*
X268633240Y-53675520D03*
X269433240Y-53675520D03*
X270233240Y-53675520D03*
X271033240Y-53675520D03*
X271833240Y-53675520D03*
X272633240Y-53675520D03*
X273433240Y-53675520D03*
X274233240Y-53675520D03*
X275033240Y-53675520D03*
D12*
X276733240Y-51975520D03*
X276733240Y-51175520D03*
X276733240Y-50375520D03*
X276733240Y-49575520D03*
X276733240Y-48775520D03*
X276733240Y-47975520D03*
X276733240Y-47175520D03*
X276733240Y-46375520D03*
X276733240Y-45575520D03*
X276733240Y-44775520D03*
X276733240Y-43975520D03*
D13*
X306020000Y-55889520D03*
X309320000Y-55889520D03*
D14*
G36*
X292474505Y-66377524D02*
G01*
X292498773Y-66381124D01*
X292522572Y-66387085D01*
X292545671Y-66395350D01*
X292567850Y-66405840D01*
X292588893Y-66418452D01*
X292608599Y-66433067D01*
X292626777Y-66449543D01*
X292643253Y-66467721D01*
X292657868Y-66487427D01*
X292670480Y-66508470D01*
X292680970Y-66530649D01*
X292689235Y-66553748D01*
X292695196Y-66577547D01*
X292698796Y-66601815D01*
X292700000Y-66626319D01*
X292700000Y-67526321D01*
X292698796Y-67550825D01*
X292695196Y-67575093D01*
X292689235Y-67598892D01*
X292680970Y-67621991D01*
X292670480Y-67644170D01*
X292657868Y-67665213D01*
X292643253Y-67684919D01*
X292626777Y-67703097D01*
X292608599Y-67719573D01*
X292588893Y-67734188D01*
X292567850Y-67746800D01*
X292545671Y-67757290D01*
X292522572Y-67765555D01*
X292498773Y-67771516D01*
X292474505Y-67775116D01*
X292450001Y-67776320D01*
X291924999Y-67776320D01*
X291900495Y-67775116D01*
X291876227Y-67771516D01*
X291852428Y-67765555D01*
X291829329Y-67757290D01*
X291807150Y-67746800D01*
X291786107Y-67734188D01*
X291766401Y-67719573D01*
X291748223Y-67703097D01*
X291731747Y-67684919D01*
X291717132Y-67665213D01*
X291704520Y-67644170D01*
X291694030Y-67621991D01*
X291685765Y-67598892D01*
X291679804Y-67575093D01*
X291676204Y-67550825D01*
X291675000Y-67526321D01*
X291675000Y-66626319D01*
X291676204Y-66601815D01*
X291679804Y-66577547D01*
X291685765Y-66553748D01*
X291694030Y-66530649D01*
X291704520Y-66508470D01*
X291717132Y-66487427D01*
X291731747Y-66467721D01*
X291748223Y-66449543D01*
X291766401Y-66433067D01*
X291786107Y-66418452D01*
X291807150Y-66405840D01*
X291829329Y-66395350D01*
X291852428Y-66387085D01*
X291876227Y-66381124D01*
X291900495Y-66377524D01*
X291924999Y-66376320D01*
X292450001Y-66376320D01*
X292474505Y-66377524D01*
X292474505Y-66377524D01*
G37*
D15*
X292187500Y-67076320D03*
D14*
G36*
X290649505Y-66377524D02*
G01*
X290673773Y-66381124D01*
X290697572Y-66387085D01*
X290720671Y-66395350D01*
X290742850Y-66405840D01*
X290763893Y-66418452D01*
X290783599Y-66433067D01*
X290801777Y-66449543D01*
X290818253Y-66467721D01*
X290832868Y-66487427D01*
X290845480Y-66508470D01*
X290855970Y-66530649D01*
X290864235Y-66553748D01*
X290870196Y-66577547D01*
X290873796Y-66601815D01*
X290875000Y-66626319D01*
X290875000Y-67526321D01*
X290873796Y-67550825D01*
X290870196Y-67575093D01*
X290864235Y-67598892D01*
X290855970Y-67621991D01*
X290845480Y-67644170D01*
X290832868Y-67665213D01*
X290818253Y-67684919D01*
X290801777Y-67703097D01*
X290783599Y-67719573D01*
X290763893Y-67734188D01*
X290742850Y-67746800D01*
X290720671Y-67757290D01*
X290697572Y-67765555D01*
X290673773Y-67771516D01*
X290649505Y-67775116D01*
X290625001Y-67776320D01*
X290099999Y-67776320D01*
X290075495Y-67775116D01*
X290051227Y-67771516D01*
X290027428Y-67765555D01*
X290004329Y-67757290D01*
X289982150Y-67746800D01*
X289961107Y-67734188D01*
X289941401Y-67719573D01*
X289923223Y-67703097D01*
X289906747Y-67684919D01*
X289892132Y-67665213D01*
X289879520Y-67644170D01*
X289869030Y-67621991D01*
X289860765Y-67598892D01*
X289854804Y-67575093D01*
X289851204Y-67550825D01*
X289850000Y-67526321D01*
X289850000Y-66626319D01*
X289851204Y-66601815D01*
X289854804Y-66577547D01*
X289860765Y-66553748D01*
X289869030Y-66530649D01*
X289879520Y-66508470D01*
X289892132Y-66487427D01*
X289906747Y-66467721D01*
X289923223Y-66449543D01*
X289941401Y-66433067D01*
X289961107Y-66418452D01*
X289982150Y-66405840D01*
X290004329Y-66395350D01*
X290027428Y-66387085D01*
X290051227Y-66381124D01*
X290075495Y-66377524D01*
X290099999Y-66376320D01*
X290625001Y-66376320D01*
X290649505Y-66377524D01*
X290649505Y-66377524D01*
G37*
D15*
X290362500Y-67076320D03*
D14*
G36*
X277089505Y-24101204D02*
G01*
X277113773Y-24104804D01*
X277137572Y-24110765D01*
X277160671Y-24119030D01*
X277182850Y-24129520D01*
X277203893Y-24142132D01*
X277223599Y-24156747D01*
X277241777Y-24173223D01*
X277258253Y-24191401D01*
X277272868Y-24211107D01*
X277285480Y-24232150D01*
X277295970Y-24254329D01*
X277304235Y-24277428D01*
X277310196Y-24301227D01*
X277313796Y-24325495D01*
X277315000Y-24349999D01*
X277315000Y-25250001D01*
X277313796Y-25274505D01*
X277310196Y-25298773D01*
X277304235Y-25322572D01*
X277295970Y-25345671D01*
X277285480Y-25367850D01*
X277272868Y-25388893D01*
X277258253Y-25408599D01*
X277241777Y-25426777D01*
X277223599Y-25443253D01*
X277203893Y-25457868D01*
X277182850Y-25470480D01*
X277160671Y-25480970D01*
X277137572Y-25489235D01*
X277113773Y-25495196D01*
X277089505Y-25498796D01*
X277065001Y-25500000D01*
X276539999Y-25500000D01*
X276515495Y-25498796D01*
X276491227Y-25495196D01*
X276467428Y-25489235D01*
X276444329Y-25480970D01*
X276422150Y-25470480D01*
X276401107Y-25457868D01*
X276381401Y-25443253D01*
X276363223Y-25426777D01*
X276346747Y-25408599D01*
X276332132Y-25388893D01*
X276319520Y-25367850D01*
X276309030Y-25345671D01*
X276300765Y-25322572D01*
X276294804Y-25298773D01*
X276291204Y-25274505D01*
X276290000Y-25250001D01*
X276290000Y-24349999D01*
X276291204Y-24325495D01*
X276294804Y-24301227D01*
X276300765Y-24277428D01*
X276309030Y-24254329D01*
X276319520Y-24232150D01*
X276332132Y-24211107D01*
X276346747Y-24191401D01*
X276363223Y-24173223D01*
X276381401Y-24156747D01*
X276401107Y-24142132D01*
X276422150Y-24129520D01*
X276444329Y-24119030D01*
X276467428Y-24110765D01*
X276491227Y-24104804D01*
X276515495Y-24101204D01*
X276539999Y-24100000D01*
X277065001Y-24100000D01*
X277089505Y-24101204D01*
X277089505Y-24101204D01*
G37*
D15*
X276802500Y-24800000D03*
D14*
G36*
X275264505Y-24101204D02*
G01*
X275288773Y-24104804D01*
X275312572Y-24110765D01*
X275335671Y-24119030D01*
X275357850Y-24129520D01*
X275378893Y-24142132D01*
X275398599Y-24156747D01*
X275416777Y-24173223D01*
X275433253Y-24191401D01*
X275447868Y-24211107D01*
X275460480Y-24232150D01*
X275470970Y-24254329D01*
X275479235Y-24277428D01*
X275485196Y-24301227D01*
X275488796Y-24325495D01*
X275490000Y-24349999D01*
X275490000Y-25250001D01*
X275488796Y-25274505D01*
X275485196Y-25298773D01*
X275479235Y-25322572D01*
X275470970Y-25345671D01*
X275460480Y-25367850D01*
X275447868Y-25388893D01*
X275433253Y-25408599D01*
X275416777Y-25426777D01*
X275398599Y-25443253D01*
X275378893Y-25457868D01*
X275357850Y-25470480D01*
X275335671Y-25480970D01*
X275312572Y-25489235D01*
X275288773Y-25495196D01*
X275264505Y-25498796D01*
X275240001Y-25500000D01*
X274714999Y-25500000D01*
X274690495Y-25498796D01*
X274666227Y-25495196D01*
X274642428Y-25489235D01*
X274619329Y-25480970D01*
X274597150Y-25470480D01*
X274576107Y-25457868D01*
X274556401Y-25443253D01*
X274538223Y-25426777D01*
X274521747Y-25408599D01*
X274507132Y-25388893D01*
X274494520Y-25367850D01*
X274484030Y-25345671D01*
X274475765Y-25322572D01*
X274469804Y-25298773D01*
X274466204Y-25274505D01*
X274465000Y-25250001D01*
X274465000Y-24349999D01*
X274466204Y-24325495D01*
X274469804Y-24301227D01*
X274475765Y-24277428D01*
X274484030Y-24254329D01*
X274494520Y-24232150D01*
X274507132Y-24211107D01*
X274521747Y-24191401D01*
X274538223Y-24173223D01*
X274556401Y-24156747D01*
X274576107Y-24142132D01*
X274597150Y-24129520D01*
X274619329Y-24119030D01*
X274642428Y-24110765D01*
X274666227Y-24104804D01*
X274690495Y-24101204D01*
X274714999Y-24100000D01*
X275240001Y-24100000D01*
X275264505Y-24101204D01*
X275264505Y-24101204D01*
G37*
D15*
X274977500Y-24800000D03*
D14*
G36*
X286949505Y-66377524D02*
G01*
X286973773Y-66381124D01*
X286997572Y-66387085D01*
X287020671Y-66395350D01*
X287042850Y-66405840D01*
X287063893Y-66418452D01*
X287083599Y-66433067D01*
X287101777Y-66449543D01*
X287118253Y-66467721D01*
X287132868Y-66487427D01*
X287145480Y-66508470D01*
X287155970Y-66530649D01*
X287164235Y-66553748D01*
X287170196Y-66577547D01*
X287173796Y-66601815D01*
X287175000Y-66626319D01*
X287175000Y-67526321D01*
X287173796Y-67550825D01*
X287170196Y-67575093D01*
X287164235Y-67598892D01*
X287155970Y-67621991D01*
X287145480Y-67644170D01*
X287132868Y-67665213D01*
X287118253Y-67684919D01*
X287101777Y-67703097D01*
X287083599Y-67719573D01*
X287063893Y-67734188D01*
X287042850Y-67746800D01*
X287020671Y-67757290D01*
X286997572Y-67765555D01*
X286973773Y-67771516D01*
X286949505Y-67775116D01*
X286925001Y-67776320D01*
X286399999Y-67776320D01*
X286375495Y-67775116D01*
X286351227Y-67771516D01*
X286327428Y-67765555D01*
X286304329Y-67757290D01*
X286282150Y-67746800D01*
X286261107Y-67734188D01*
X286241401Y-67719573D01*
X286223223Y-67703097D01*
X286206747Y-67684919D01*
X286192132Y-67665213D01*
X286179520Y-67644170D01*
X286169030Y-67621991D01*
X286160765Y-67598892D01*
X286154804Y-67575093D01*
X286151204Y-67550825D01*
X286150000Y-67526321D01*
X286150000Y-66626319D01*
X286151204Y-66601815D01*
X286154804Y-66577547D01*
X286160765Y-66553748D01*
X286169030Y-66530649D01*
X286179520Y-66508470D01*
X286192132Y-66487427D01*
X286206747Y-66467721D01*
X286223223Y-66449543D01*
X286241401Y-66433067D01*
X286261107Y-66418452D01*
X286282150Y-66405840D01*
X286304329Y-66395350D01*
X286327428Y-66387085D01*
X286351227Y-66381124D01*
X286375495Y-66377524D01*
X286399999Y-66376320D01*
X286925001Y-66376320D01*
X286949505Y-66377524D01*
X286949505Y-66377524D01*
G37*
D15*
X286662500Y-67076320D03*
D14*
G36*
X285124505Y-66377524D02*
G01*
X285148773Y-66381124D01*
X285172572Y-66387085D01*
X285195671Y-66395350D01*
X285217850Y-66405840D01*
X285238893Y-66418452D01*
X285258599Y-66433067D01*
X285276777Y-66449543D01*
X285293253Y-66467721D01*
X285307868Y-66487427D01*
X285320480Y-66508470D01*
X285330970Y-66530649D01*
X285339235Y-66553748D01*
X285345196Y-66577547D01*
X285348796Y-66601815D01*
X285350000Y-66626319D01*
X285350000Y-67526321D01*
X285348796Y-67550825D01*
X285345196Y-67575093D01*
X285339235Y-67598892D01*
X285330970Y-67621991D01*
X285320480Y-67644170D01*
X285307868Y-67665213D01*
X285293253Y-67684919D01*
X285276777Y-67703097D01*
X285258599Y-67719573D01*
X285238893Y-67734188D01*
X285217850Y-67746800D01*
X285195671Y-67757290D01*
X285172572Y-67765555D01*
X285148773Y-67771516D01*
X285124505Y-67775116D01*
X285100001Y-67776320D01*
X284574999Y-67776320D01*
X284550495Y-67775116D01*
X284526227Y-67771516D01*
X284502428Y-67765555D01*
X284479329Y-67757290D01*
X284457150Y-67746800D01*
X284436107Y-67734188D01*
X284416401Y-67719573D01*
X284398223Y-67703097D01*
X284381747Y-67684919D01*
X284367132Y-67665213D01*
X284354520Y-67644170D01*
X284344030Y-67621991D01*
X284335765Y-67598892D01*
X284329804Y-67575093D01*
X284326204Y-67550825D01*
X284325000Y-67526321D01*
X284325000Y-66626319D01*
X284326204Y-66601815D01*
X284329804Y-66577547D01*
X284335765Y-66553748D01*
X284344030Y-66530649D01*
X284354520Y-66508470D01*
X284367132Y-66487427D01*
X284381747Y-66467721D01*
X284398223Y-66449543D01*
X284416401Y-66433067D01*
X284436107Y-66418452D01*
X284457150Y-66405840D01*
X284479329Y-66395350D01*
X284502428Y-66387085D01*
X284526227Y-66381124D01*
X284550495Y-66377524D01*
X284574999Y-66376320D01*
X285100001Y-66376320D01*
X285124505Y-66377524D01*
X285124505Y-66377524D01*
G37*
D15*
X284837500Y-67076320D03*
D14*
G36*
X294514505Y-24111204D02*
G01*
X294538773Y-24114804D01*
X294562572Y-24120765D01*
X294585671Y-24129030D01*
X294607850Y-24139520D01*
X294628893Y-24152132D01*
X294648599Y-24166747D01*
X294666777Y-24183223D01*
X294683253Y-24201401D01*
X294697868Y-24221107D01*
X294710480Y-24242150D01*
X294720970Y-24264329D01*
X294729235Y-24287428D01*
X294735196Y-24311227D01*
X294738796Y-24335495D01*
X294740000Y-24359999D01*
X294740000Y-25260001D01*
X294738796Y-25284505D01*
X294735196Y-25308773D01*
X294729235Y-25332572D01*
X294720970Y-25355671D01*
X294710480Y-25377850D01*
X294697868Y-25398893D01*
X294683253Y-25418599D01*
X294666777Y-25436777D01*
X294648599Y-25453253D01*
X294628893Y-25467868D01*
X294607850Y-25480480D01*
X294585671Y-25490970D01*
X294562572Y-25499235D01*
X294538773Y-25505196D01*
X294514505Y-25508796D01*
X294490001Y-25510000D01*
X293964999Y-25510000D01*
X293940495Y-25508796D01*
X293916227Y-25505196D01*
X293892428Y-25499235D01*
X293869329Y-25490970D01*
X293847150Y-25480480D01*
X293826107Y-25467868D01*
X293806401Y-25453253D01*
X293788223Y-25436777D01*
X293771747Y-25418599D01*
X293757132Y-25398893D01*
X293744520Y-25377850D01*
X293734030Y-25355671D01*
X293725765Y-25332572D01*
X293719804Y-25308773D01*
X293716204Y-25284505D01*
X293715000Y-25260001D01*
X293715000Y-24359999D01*
X293716204Y-24335495D01*
X293719804Y-24311227D01*
X293725765Y-24287428D01*
X293734030Y-24264329D01*
X293744520Y-24242150D01*
X293757132Y-24221107D01*
X293771747Y-24201401D01*
X293788223Y-24183223D01*
X293806401Y-24166747D01*
X293826107Y-24152132D01*
X293847150Y-24139520D01*
X293869329Y-24129030D01*
X293892428Y-24120765D01*
X293916227Y-24114804D01*
X293940495Y-24111204D01*
X293964999Y-24110000D01*
X294490001Y-24110000D01*
X294514505Y-24111204D01*
X294514505Y-24111204D01*
G37*
D15*
X294227500Y-24810000D03*
D14*
G36*
X296339505Y-24111204D02*
G01*
X296363773Y-24114804D01*
X296387572Y-24120765D01*
X296410671Y-24129030D01*
X296432850Y-24139520D01*
X296453893Y-24152132D01*
X296473599Y-24166747D01*
X296491777Y-24183223D01*
X296508253Y-24201401D01*
X296522868Y-24221107D01*
X296535480Y-24242150D01*
X296545970Y-24264329D01*
X296554235Y-24287428D01*
X296560196Y-24311227D01*
X296563796Y-24335495D01*
X296565000Y-24359999D01*
X296565000Y-25260001D01*
X296563796Y-25284505D01*
X296560196Y-25308773D01*
X296554235Y-25332572D01*
X296545970Y-25355671D01*
X296535480Y-25377850D01*
X296522868Y-25398893D01*
X296508253Y-25418599D01*
X296491777Y-25436777D01*
X296473599Y-25453253D01*
X296453893Y-25467868D01*
X296432850Y-25480480D01*
X296410671Y-25490970D01*
X296387572Y-25499235D01*
X296363773Y-25505196D01*
X296339505Y-25508796D01*
X296315001Y-25510000D01*
X295789999Y-25510000D01*
X295765495Y-25508796D01*
X295741227Y-25505196D01*
X295717428Y-25499235D01*
X295694329Y-25490970D01*
X295672150Y-25480480D01*
X295651107Y-25467868D01*
X295631401Y-25453253D01*
X295613223Y-25436777D01*
X295596747Y-25418599D01*
X295582132Y-25398893D01*
X295569520Y-25377850D01*
X295559030Y-25355671D01*
X295550765Y-25332572D01*
X295544804Y-25308773D01*
X295541204Y-25284505D01*
X295540000Y-25260001D01*
X295540000Y-24359999D01*
X295541204Y-24335495D01*
X295544804Y-24311227D01*
X295550765Y-24287428D01*
X295559030Y-24264329D01*
X295569520Y-24242150D01*
X295582132Y-24221107D01*
X295596747Y-24201401D01*
X295613223Y-24183223D01*
X295631401Y-24166747D01*
X295651107Y-24152132D01*
X295672150Y-24139520D01*
X295694329Y-24129030D01*
X295717428Y-24120765D01*
X295741227Y-24114804D01*
X295765495Y-24111204D01*
X295789999Y-24110000D01*
X296315001Y-24110000D01*
X296339505Y-24111204D01*
X296339505Y-24111204D01*
G37*
D15*
X296052500Y-24810000D03*
D14*
G36*
X281424505Y-66377524D02*
G01*
X281448773Y-66381124D01*
X281472572Y-66387085D01*
X281495671Y-66395350D01*
X281517850Y-66405840D01*
X281538893Y-66418452D01*
X281558599Y-66433067D01*
X281576777Y-66449543D01*
X281593253Y-66467721D01*
X281607868Y-66487427D01*
X281620480Y-66508470D01*
X281630970Y-66530649D01*
X281639235Y-66553748D01*
X281645196Y-66577547D01*
X281648796Y-66601815D01*
X281650000Y-66626319D01*
X281650000Y-67526321D01*
X281648796Y-67550825D01*
X281645196Y-67575093D01*
X281639235Y-67598892D01*
X281630970Y-67621991D01*
X281620480Y-67644170D01*
X281607868Y-67665213D01*
X281593253Y-67684919D01*
X281576777Y-67703097D01*
X281558599Y-67719573D01*
X281538893Y-67734188D01*
X281517850Y-67746800D01*
X281495671Y-67757290D01*
X281472572Y-67765555D01*
X281448773Y-67771516D01*
X281424505Y-67775116D01*
X281400001Y-67776320D01*
X280874999Y-67776320D01*
X280850495Y-67775116D01*
X280826227Y-67771516D01*
X280802428Y-67765555D01*
X280779329Y-67757290D01*
X280757150Y-67746800D01*
X280736107Y-67734188D01*
X280716401Y-67719573D01*
X280698223Y-67703097D01*
X280681747Y-67684919D01*
X280667132Y-67665213D01*
X280654520Y-67644170D01*
X280644030Y-67621991D01*
X280635765Y-67598892D01*
X280629804Y-67575093D01*
X280626204Y-67550825D01*
X280625000Y-67526321D01*
X280625000Y-66626319D01*
X280626204Y-66601815D01*
X280629804Y-66577547D01*
X280635765Y-66553748D01*
X280644030Y-66530649D01*
X280654520Y-66508470D01*
X280667132Y-66487427D01*
X280681747Y-66467721D01*
X280698223Y-66449543D01*
X280716401Y-66433067D01*
X280736107Y-66418452D01*
X280757150Y-66405840D01*
X280779329Y-66395350D01*
X280802428Y-66387085D01*
X280826227Y-66381124D01*
X280850495Y-66377524D01*
X280874999Y-66376320D01*
X281400001Y-66376320D01*
X281424505Y-66377524D01*
X281424505Y-66377524D01*
G37*
D15*
X281137500Y-67076320D03*
D14*
G36*
X279599505Y-66377524D02*
G01*
X279623773Y-66381124D01*
X279647572Y-66387085D01*
X279670671Y-66395350D01*
X279692850Y-66405840D01*
X279713893Y-66418452D01*
X279733599Y-66433067D01*
X279751777Y-66449543D01*
X279768253Y-66467721D01*
X279782868Y-66487427D01*
X279795480Y-66508470D01*
X279805970Y-66530649D01*
X279814235Y-66553748D01*
X279820196Y-66577547D01*
X279823796Y-66601815D01*
X279825000Y-66626319D01*
X279825000Y-67526321D01*
X279823796Y-67550825D01*
X279820196Y-67575093D01*
X279814235Y-67598892D01*
X279805970Y-67621991D01*
X279795480Y-67644170D01*
X279782868Y-67665213D01*
X279768253Y-67684919D01*
X279751777Y-67703097D01*
X279733599Y-67719573D01*
X279713893Y-67734188D01*
X279692850Y-67746800D01*
X279670671Y-67757290D01*
X279647572Y-67765555D01*
X279623773Y-67771516D01*
X279599505Y-67775116D01*
X279575001Y-67776320D01*
X279049999Y-67776320D01*
X279025495Y-67775116D01*
X279001227Y-67771516D01*
X278977428Y-67765555D01*
X278954329Y-67757290D01*
X278932150Y-67746800D01*
X278911107Y-67734188D01*
X278891401Y-67719573D01*
X278873223Y-67703097D01*
X278856747Y-67684919D01*
X278842132Y-67665213D01*
X278829520Y-67644170D01*
X278819030Y-67621991D01*
X278810765Y-67598892D01*
X278804804Y-67575093D01*
X278801204Y-67550825D01*
X278800000Y-67526321D01*
X278800000Y-66626319D01*
X278801204Y-66601815D01*
X278804804Y-66577547D01*
X278810765Y-66553748D01*
X278819030Y-66530649D01*
X278829520Y-66508470D01*
X278842132Y-66487427D01*
X278856747Y-66467721D01*
X278873223Y-66449543D01*
X278891401Y-66433067D01*
X278911107Y-66418452D01*
X278932150Y-66405840D01*
X278954329Y-66395350D01*
X278977428Y-66387085D01*
X279001227Y-66381124D01*
X279025495Y-66377524D01*
X279049999Y-66376320D01*
X279575001Y-66376320D01*
X279599505Y-66377524D01*
X279599505Y-66377524D01*
G37*
D15*
X279312500Y-67076320D03*
D14*
G36*
X263504505Y-41251204D02*
G01*
X263528773Y-41254804D01*
X263552572Y-41260765D01*
X263575671Y-41269030D01*
X263597850Y-41279520D01*
X263618893Y-41292132D01*
X263638599Y-41306747D01*
X263656777Y-41323223D01*
X263673253Y-41341401D01*
X263687868Y-41361107D01*
X263700480Y-41382150D01*
X263710970Y-41404329D01*
X263719235Y-41427428D01*
X263725196Y-41451227D01*
X263728796Y-41475495D01*
X263730000Y-41499999D01*
X263730000Y-42025001D01*
X263728796Y-42049505D01*
X263725196Y-42073773D01*
X263719235Y-42097572D01*
X263710970Y-42120671D01*
X263700480Y-42142850D01*
X263687868Y-42163893D01*
X263673253Y-42183599D01*
X263656777Y-42201777D01*
X263638599Y-42218253D01*
X263618893Y-42232868D01*
X263597850Y-42245480D01*
X263575671Y-42255970D01*
X263552572Y-42264235D01*
X263528773Y-42270196D01*
X263504505Y-42273796D01*
X263480001Y-42275000D01*
X262579999Y-42275000D01*
X262555495Y-42273796D01*
X262531227Y-42270196D01*
X262507428Y-42264235D01*
X262484329Y-42255970D01*
X262462150Y-42245480D01*
X262441107Y-42232868D01*
X262421401Y-42218253D01*
X262403223Y-42201777D01*
X262386747Y-42183599D01*
X262372132Y-42163893D01*
X262359520Y-42142850D01*
X262349030Y-42120671D01*
X262340765Y-42097572D01*
X262334804Y-42073773D01*
X262331204Y-42049505D01*
X262330000Y-42025001D01*
X262330000Y-41499999D01*
X262331204Y-41475495D01*
X262334804Y-41451227D01*
X262340765Y-41427428D01*
X262349030Y-41404329D01*
X262359520Y-41382150D01*
X262372132Y-41361107D01*
X262386747Y-41341401D01*
X262403223Y-41323223D01*
X262421401Y-41306747D01*
X262441107Y-41292132D01*
X262462150Y-41279520D01*
X262484329Y-41269030D01*
X262507428Y-41260765D01*
X262531227Y-41254804D01*
X262555495Y-41251204D01*
X262579999Y-41250000D01*
X263480001Y-41250000D01*
X263504505Y-41251204D01*
X263504505Y-41251204D01*
G37*
D15*
X263030000Y-41762500D03*
D14*
G36*
X263504505Y-39426204D02*
G01*
X263528773Y-39429804D01*
X263552572Y-39435765D01*
X263575671Y-39444030D01*
X263597850Y-39454520D01*
X263618893Y-39467132D01*
X263638599Y-39481747D01*
X263656777Y-39498223D01*
X263673253Y-39516401D01*
X263687868Y-39536107D01*
X263700480Y-39557150D01*
X263710970Y-39579329D01*
X263719235Y-39602428D01*
X263725196Y-39626227D01*
X263728796Y-39650495D01*
X263730000Y-39674999D01*
X263730000Y-40200001D01*
X263728796Y-40224505D01*
X263725196Y-40248773D01*
X263719235Y-40272572D01*
X263710970Y-40295671D01*
X263700480Y-40317850D01*
X263687868Y-40338893D01*
X263673253Y-40358599D01*
X263656777Y-40376777D01*
X263638599Y-40393253D01*
X263618893Y-40407868D01*
X263597850Y-40420480D01*
X263575671Y-40430970D01*
X263552572Y-40439235D01*
X263528773Y-40445196D01*
X263504505Y-40448796D01*
X263480001Y-40450000D01*
X262579999Y-40450000D01*
X262555495Y-40448796D01*
X262531227Y-40445196D01*
X262507428Y-40439235D01*
X262484329Y-40430970D01*
X262462150Y-40420480D01*
X262441107Y-40407868D01*
X262421401Y-40393253D01*
X262403223Y-40376777D01*
X262386747Y-40358599D01*
X262372132Y-40338893D01*
X262359520Y-40317850D01*
X262349030Y-40295671D01*
X262340765Y-40272572D01*
X262334804Y-40248773D01*
X262331204Y-40224505D01*
X262330000Y-40200001D01*
X262330000Y-39674999D01*
X262331204Y-39650495D01*
X262334804Y-39626227D01*
X262340765Y-39602428D01*
X262349030Y-39579329D01*
X262359520Y-39557150D01*
X262372132Y-39536107D01*
X262386747Y-39516401D01*
X262403223Y-39498223D01*
X262421401Y-39481747D01*
X262441107Y-39467132D01*
X262462150Y-39454520D01*
X262484329Y-39444030D01*
X262507428Y-39435765D01*
X262531227Y-39429804D01*
X262555495Y-39426204D01*
X262579999Y-39425000D01*
X263480001Y-39425000D01*
X263504505Y-39426204D01*
X263504505Y-39426204D01*
G37*
D15*
X263030000Y-39937500D03*
D14*
G36*
X286404505Y-41696204D02*
G01*
X286428773Y-41699804D01*
X286452572Y-41705765D01*
X286475671Y-41714030D01*
X286497850Y-41724520D01*
X286518893Y-41737132D01*
X286538599Y-41751747D01*
X286556777Y-41768223D01*
X286573253Y-41786401D01*
X286587868Y-41806107D01*
X286600480Y-41827150D01*
X286610970Y-41849329D01*
X286619235Y-41872428D01*
X286625196Y-41896227D01*
X286628796Y-41920495D01*
X286630000Y-41944999D01*
X286630000Y-42470001D01*
X286628796Y-42494505D01*
X286625196Y-42518773D01*
X286619235Y-42542572D01*
X286610970Y-42565671D01*
X286600480Y-42587850D01*
X286587868Y-42608893D01*
X286573253Y-42628599D01*
X286556777Y-42646777D01*
X286538599Y-42663253D01*
X286518893Y-42677868D01*
X286497850Y-42690480D01*
X286475671Y-42700970D01*
X286452572Y-42709235D01*
X286428773Y-42715196D01*
X286404505Y-42718796D01*
X286380001Y-42720000D01*
X285479999Y-42720000D01*
X285455495Y-42718796D01*
X285431227Y-42715196D01*
X285407428Y-42709235D01*
X285384329Y-42700970D01*
X285362150Y-42690480D01*
X285341107Y-42677868D01*
X285321401Y-42663253D01*
X285303223Y-42646777D01*
X285286747Y-42628599D01*
X285272132Y-42608893D01*
X285259520Y-42587850D01*
X285249030Y-42565671D01*
X285240765Y-42542572D01*
X285234804Y-42518773D01*
X285231204Y-42494505D01*
X285230000Y-42470001D01*
X285230000Y-41944999D01*
X285231204Y-41920495D01*
X285234804Y-41896227D01*
X285240765Y-41872428D01*
X285249030Y-41849329D01*
X285259520Y-41827150D01*
X285272132Y-41806107D01*
X285286747Y-41786401D01*
X285303223Y-41768223D01*
X285321401Y-41751747D01*
X285341107Y-41737132D01*
X285362150Y-41724520D01*
X285384329Y-41714030D01*
X285407428Y-41705765D01*
X285431227Y-41699804D01*
X285455495Y-41696204D01*
X285479999Y-41695000D01*
X286380001Y-41695000D01*
X286404505Y-41696204D01*
X286404505Y-41696204D01*
G37*
D15*
X285930000Y-42207500D03*
D14*
G36*
X286404505Y-43521204D02*
G01*
X286428773Y-43524804D01*
X286452572Y-43530765D01*
X286475671Y-43539030D01*
X286497850Y-43549520D01*
X286518893Y-43562132D01*
X286538599Y-43576747D01*
X286556777Y-43593223D01*
X286573253Y-43611401D01*
X286587868Y-43631107D01*
X286600480Y-43652150D01*
X286610970Y-43674329D01*
X286619235Y-43697428D01*
X286625196Y-43721227D01*
X286628796Y-43745495D01*
X286630000Y-43769999D01*
X286630000Y-44295001D01*
X286628796Y-44319505D01*
X286625196Y-44343773D01*
X286619235Y-44367572D01*
X286610970Y-44390671D01*
X286600480Y-44412850D01*
X286587868Y-44433893D01*
X286573253Y-44453599D01*
X286556777Y-44471777D01*
X286538599Y-44488253D01*
X286518893Y-44502868D01*
X286497850Y-44515480D01*
X286475671Y-44525970D01*
X286452572Y-44534235D01*
X286428773Y-44540196D01*
X286404505Y-44543796D01*
X286380001Y-44545000D01*
X285479999Y-44545000D01*
X285455495Y-44543796D01*
X285431227Y-44540196D01*
X285407428Y-44534235D01*
X285384329Y-44525970D01*
X285362150Y-44515480D01*
X285341107Y-44502868D01*
X285321401Y-44488253D01*
X285303223Y-44471777D01*
X285286747Y-44453599D01*
X285272132Y-44433893D01*
X285259520Y-44412850D01*
X285249030Y-44390671D01*
X285240765Y-44367572D01*
X285234804Y-44343773D01*
X285231204Y-44319505D01*
X285230000Y-44295001D01*
X285230000Y-43769999D01*
X285231204Y-43745495D01*
X285234804Y-43721227D01*
X285240765Y-43697428D01*
X285249030Y-43674329D01*
X285259520Y-43652150D01*
X285272132Y-43631107D01*
X285286747Y-43611401D01*
X285303223Y-43593223D01*
X285321401Y-43576747D01*
X285341107Y-43562132D01*
X285362150Y-43549520D01*
X285384329Y-43539030D01*
X285407428Y-43530765D01*
X285431227Y-43524804D01*
X285455495Y-43521204D01*
X285479999Y-43520000D01*
X286380001Y-43520000D01*
X286404505Y-43521204D01*
X286404505Y-43521204D01*
G37*
D15*
X285930000Y-44032500D03*
D14*
G36*
X288904505Y-41696204D02*
G01*
X288928773Y-41699804D01*
X288952572Y-41705765D01*
X288975671Y-41714030D01*
X288997850Y-41724520D01*
X289018893Y-41737132D01*
X289038599Y-41751747D01*
X289056777Y-41768223D01*
X289073253Y-41786401D01*
X289087868Y-41806107D01*
X289100480Y-41827150D01*
X289110970Y-41849329D01*
X289119235Y-41872428D01*
X289125196Y-41896227D01*
X289128796Y-41920495D01*
X289130000Y-41944999D01*
X289130000Y-42470001D01*
X289128796Y-42494505D01*
X289125196Y-42518773D01*
X289119235Y-42542572D01*
X289110970Y-42565671D01*
X289100480Y-42587850D01*
X289087868Y-42608893D01*
X289073253Y-42628599D01*
X289056777Y-42646777D01*
X289038599Y-42663253D01*
X289018893Y-42677868D01*
X288997850Y-42690480D01*
X288975671Y-42700970D01*
X288952572Y-42709235D01*
X288928773Y-42715196D01*
X288904505Y-42718796D01*
X288880001Y-42720000D01*
X287979999Y-42720000D01*
X287955495Y-42718796D01*
X287931227Y-42715196D01*
X287907428Y-42709235D01*
X287884329Y-42700970D01*
X287862150Y-42690480D01*
X287841107Y-42677868D01*
X287821401Y-42663253D01*
X287803223Y-42646777D01*
X287786747Y-42628599D01*
X287772132Y-42608893D01*
X287759520Y-42587850D01*
X287749030Y-42565671D01*
X287740765Y-42542572D01*
X287734804Y-42518773D01*
X287731204Y-42494505D01*
X287730000Y-42470001D01*
X287730000Y-41944999D01*
X287731204Y-41920495D01*
X287734804Y-41896227D01*
X287740765Y-41872428D01*
X287749030Y-41849329D01*
X287759520Y-41827150D01*
X287772132Y-41806107D01*
X287786747Y-41786401D01*
X287803223Y-41768223D01*
X287821401Y-41751747D01*
X287841107Y-41737132D01*
X287862150Y-41724520D01*
X287884329Y-41714030D01*
X287907428Y-41705765D01*
X287931227Y-41699804D01*
X287955495Y-41696204D01*
X287979999Y-41695000D01*
X288880001Y-41695000D01*
X288904505Y-41696204D01*
X288904505Y-41696204D01*
G37*
D15*
X288430000Y-42207500D03*
D14*
G36*
X288904505Y-43521204D02*
G01*
X288928773Y-43524804D01*
X288952572Y-43530765D01*
X288975671Y-43539030D01*
X288997850Y-43549520D01*
X289018893Y-43562132D01*
X289038599Y-43576747D01*
X289056777Y-43593223D01*
X289073253Y-43611401D01*
X289087868Y-43631107D01*
X289100480Y-43652150D01*
X289110970Y-43674329D01*
X289119235Y-43697428D01*
X289125196Y-43721227D01*
X289128796Y-43745495D01*
X289130000Y-43769999D01*
X289130000Y-44295001D01*
X289128796Y-44319505D01*
X289125196Y-44343773D01*
X289119235Y-44367572D01*
X289110970Y-44390671D01*
X289100480Y-44412850D01*
X289087868Y-44433893D01*
X289073253Y-44453599D01*
X289056777Y-44471777D01*
X289038599Y-44488253D01*
X289018893Y-44502868D01*
X288997850Y-44515480D01*
X288975671Y-44525970D01*
X288952572Y-44534235D01*
X288928773Y-44540196D01*
X288904505Y-44543796D01*
X288880001Y-44545000D01*
X287979999Y-44545000D01*
X287955495Y-44543796D01*
X287931227Y-44540196D01*
X287907428Y-44534235D01*
X287884329Y-44525970D01*
X287862150Y-44515480D01*
X287841107Y-44502868D01*
X287821401Y-44488253D01*
X287803223Y-44471777D01*
X287786747Y-44453599D01*
X287772132Y-44433893D01*
X287759520Y-44412850D01*
X287749030Y-44390671D01*
X287740765Y-44367572D01*
X287734804Y-44343773D01*
X287731204Y-44319505D01*
X287730000Y-44295001D01*
X287730000Y-43769999D01*
X287731204Y-43745495D01*
X287734804Y-43721227D01*
X287740765Y-43697428D01*
X287749030Y-43674329D01*
X287759520Y-43652150D01*
X287772132Y-43631107D01*
X287786747Y-43611401D01*
X287803223Y-43593223D01*
X287821401Y-43576747D01*
X287841107Y-43562132D01*
X287862150Y-43549520D01*
X287884329Y-43539030D01*
X287907428Y-43530765D01*
X287931227Y-43524804D01*
X287955495Y-43521204D01*
X287979999Y-43520000D01*
X288880001Y-43520000D01*
X288904505Y-43521204D01*
X288904505Y-43521204D01*
G37*
D15*
X288430000Y-44032500D03*
D14*
G36*
X265690744Y-39414724D02*
G01*
X265715013Y-39418324D01*
X265738811Y-39424285D01*
X265761911Y-39432550D01*
X265784089Y-39443040D01*
X265805133Y-39455653D01*
X265824838Y-39470267D01*
X265843017Y-39486743D01*
X265859493Y-39504922D01*
X265874107Y-39524627D01*
X265886720Y-39545671D01*
X265897210Y-39567849D01*
X265905475Y-39590949D01*
X265911436Y-39614747D01*
X265915036Y-39639016D01*
X265916240Y-39663520D01*
X265916240Y-40163520D01*
X265915036Y-40188024D01*
X265911436Y-40212293D01*
X265905475Y-40236091D01*
X265897210Y-40259191D01*
X265886720Y-40281369D01*
X265874107Y-40302413D01*
X265859493Y-40322118D01*
X265843017Y-40340297D01*
X265824838Y-40356773D01*
X265805133Y-40371387D01*
X265784089Y-40384000D01*
X265761911Y-40394490D01*
X265738811Y-40402755D01*
X265715013Y-40408716D01*
X265690744Y-40412316D01*
X265666240Y-40413520D01*
X264716240Y-40413520D01*
X264691736Y-40412316D01*
X264667467Y-40408716D01*
X264643669Y-40402755D01*
X264620569Y-40394490D01*
X264598391Y-40384000D01*
X264577347Y-40371387D01*
X264557642Y-40356773D01*
X264539463Y-40340297D01*
X264522987Y-40322118D01*
X264508373Y-40302413D01*
X264495760Y-40281369D01*
X264485270Y-40259191D01*
X264477005Y-40236091D01*
X264471044Y-40212293D01*
X264467444Y-40188024D01*
X264466240Y-40163520D01*
X264466240Y-39663520D01*
X264467444Y-39639016D01*
X264471044Y-39614747D01*
X264477005Y-39590949D01*
X264485270Y-39567849D01*
X264495760Y-39545671D01*
X264508373Y-39524627D01*
X264522987Y-39504922D01*
X264539463Y-39486743D01*
X264557642Y-39470267D01*
X264577347Y-39455653D01*
X264598391Y-39443040D01*
X264620569Y-39432550D01*
X264643669Y-39424285D01*
X264667467Y-39418324D01*
X264691736Y-39414724D01*
X264716240Y-39413520D01*
X265666240Y-39413520D01*
X265690744Y-39414724D01*
X265690744Y-39414724D01*
G37*
D16*
X265191240Y-39913520D03*
D14*
G36*
X265690744Y-41314724D02*
G01*
X265715013Y-41318324D01*
X265738811Y-41324285D01*
X265761911Y-41332550D01*
X265784089Y-41343040D01*
X265805133Y-41355653D01*
X265824838Y-41370267D01*
X265843017Y-41386743D01*
X265859493Y-41404922D01*
X265874107Y-41424627D01*
X265886720Y-41445671D01*
X265897210Y-41467849D01*
X265905475Y-41490949D01*
X265911436Y-41514747D01*
X265915036Y-41539016D01*
X265916240Y-41563520D01*
X265916240Y-42063520D01*
X265915036Y-42088024D01*
X265911436Y-42112293D01*
X265905475Y-42136091D01*
X265897210Y-42159191D01*
X265886720Y-42181369D01*
X265874107Y-42202413D01*
X265859493Y-42222118D01*
X265843017Y-42240297D01*
X265824838Y-42256773D01*
X265805133Y-42271387D01*
X265784089Y-42284000D01*
X265761911Y-42294490D01*
X265738811Y-42302755D01*
X265715013Y-42308716D01*
X265690744Y-42312316D01*
X265666240Y-42313520D01*
X264716240Y-42313520D01*
X264691736Y-42312316D01*
X264667467Y-42308716D01*
X264643669Y-42302755D01*
X264620569Y-42294490D01*
X264598391Y-42284000D01*
X264577347Y-42271387D01*
X264557642Y-42256773D01*
X264539463Y-42240297D01*
X264522987Y-42222118D01*
X264508373Y-42202413D01*
X264495760Y-42181369D01*
X264485270Y-42159191D01*
X264477005Y-42136091D01*
X264471044Y-42112293D01*
X264467444Y-42088024D01*
X264466240Y-42063520D01*
X264466240Y-41563520D01*
X264467444Y-41539016D01*
X264471044Y-41514747D01*
X264477005Y-41490949D01*
X264485270Y-41467849D01*
X264495760Y-41445671D01*
X264508373Y-41424627D01*
X264522987Y-41404922D01*
X264539463Y-41386743D01*
X264557642Y-41370267D01*
X264577347Y-41355653D01*
X264598391Y-41343040D01*
X264620569Y-41332550D01*
X264643669Y-41324285D01*
X264667467Y-41318324D01*
X264691736Y-41314724D01*
X264716240Y-41313520D01*
X265666240Y-41313520D01*
X265690744Y-41314724D01*
X265690744Y-41314724D01*
G37*
D16*
X265191240Y-41813520D03*
D14*
G36*
X277850744Y-56395724D02*
G01*
X277875013Y-56399324D01*
X277898811Y-56405285D01*
X277921911Y-56413550D01*
X277944089Y-56424040D01*
X277965133Y-56436653D01*
X277984838Y-56451267D01*
X278003017Y-56467743D01*
X278019493Y-56485922D01*
X278034107Y-56505627D01*
X278046720Y-56526671D01*
X278057210Y-56548849D01*
X278065475Y-56571949D01*
X278071436Y-56595747D01*
X278075036Y-56620016D01*
X278076240Y-56644520D01*
X278076240Y-57594520D01*
X278075036Y-57619024D01*
X278071436Y-57643293D01*
X278065475Y-57667091D01*
X278057210Y-57690191D01*
X278046720Y-57712369D01*
X278034107Y-57733413D01*
X278019493Y-57753118D01*
X278003017Y-57771297D01*
X277984838Y-57787773D01*
X277965133Y-57802387D01*
X277944089Y-57815000D01*
X277921911Y-57825490D01*
X277898811Y-57833755D01*
X277875013Y-57839716D01*
X277850744Y-57843316D01*
X277826240Y-57844520D01*
X277326240Y-57844520D01*
X277301736Y-57843316D01*
X277277467Y-57839716D01*
X277253669Y-57833755D01*
X277230569Y-57825490D01*
X277208391Y-57815000D01*
X277187347Y-57802387D01*
X277167642Y-57787773D01*
X277149463Y-57771297D01*
X277132987Y-57753118D01*
X277118373Y-57733413D01*
X277105760Y-57712369D01*
X277095270Y-57690191D01*
X277087005Y-57667091D01*
X277081044Y-57643293D01*
X277077444Y-57619024D01*
X277076240Y-57594520D01*
X277076240Y-56644520D01*
X277077444Y-56620016D01*
X277081044Y-56595747D01*
X277087005Y-56571949D01*
X277095270Y-56548849D01*
X277105760Y-56526671D01*
X277118373Y-56505627D01*
X277132987Y-56485922D01*
X277149463Y-56467743D01*
X277167642Y-56451267D01*
X277187347Y-56436653D01*
X277208391Y-56424040D01*
X277230569Y-56413550D01*
X277253669Y-56405285D01*
X277277467Y-56399324D01*
X277301736Y-56395724D01*
X277326240Y-56394520D01*
X277826240Y-56394520D01*
X277850744Y-56395724D01*
X277850744Y-56395724D01*
G37*
D16*
X277576240Y-57119520D03*
D14*
G36*
X279750744Y-56395724D02*
G01*
X279775013Y-56399324D01*
X279798811Y-56405285D01*
X279821911Y-56413550D01*
X279844089Y-56424040D01*
X279865133Y-56436653D01*
X279884838Y-56451267D01*
X279903017Y-56467743D01*
X279919493Y-56485922D01*
X279934107Y-56505627D01*
X279946720Y-56526671D01*
X279957210Y-56548849D01*
X279965475Y-56571949D01*
X279971436Y-56595747D01*
X279975036Y-56620016D01*
X279976240Y-56644520D01*
X279976240Y-57594520D01*
X279975036Y-57619024D01*
X279971436Y-57643293D01*
X279965475Y-57667091D01*
X279957210Y-57690191D01*
X279946720Y-57712369D01*
X279934107Y-57733413D01*
X279919493Y-57753118D01*
X279903017Y-57771297D01*
X279884838Y-57787773D01*
X279865133Y-57802387D01*
X279844089Y-57815000D01*
X279821911Y-57825490D01*
X279798811Y-57833755D01*
X279775013Y-57839716D01*
X279750744Y-57843316D01*
X279726240Y-57844520D01*
X279226240Y-57844520D01*
X279201736Y-57843316D01*
X279177467Y-57839716D01*
X279153669Y-57833755D01*
X279130569Y-57825490D01*
X279108391Y-57815000D01*
X279087347Y-57802387D01*
X279067642Y-57787773D01*
X279049463Y-57771297D01*
X279032987Y-57753118D01*
X279018373Y-57733413D01*
X279005760Y-57712369D01*
X278995270Y-57690191D01*
X278987005Y-57667091D01*
X278981044Y-57643293D01*
X278977444Y-57619024D01*
X278976240Y-57594520D01*
X278976240Y-56644520D01*
X278977444Y-56620016D01*
X278981044Y-56595747D01*
X278987005Y-56571949D01*
X278995270Y-56548849D01*
X279005760Y-56526671D01*
X279018373Y-56505627D01*
X279032987Y-56485922D01*
X279049463Y-56467743D01*
X279067642Y-56451267D01*
X279087347Y-56436653D01*
X279108391Y-56424040D01*
X279130569Y-56413550D01*
X279153669Y-56405285D01*
X279177467Y-56399324D01*
X279201736Y-56395724D01*
X279226240Y-56394520D01*
X279726240Y-56394520D01*
X279750744Y-56395724D01*
X279750744Y-56395724D01*
G37*
D16*
X279476240Y-57119520D03*
D14*
G36*
X274802744Y-39377724D02*
G01*
X274827013Y-39381324D01*
X274850811Y-39387285D01*
X274873911Y-39395550D01*
X274896089Y-39406040D01*
X274917133Y-39418653D01*
X274936838Y-39433267D01*
X274955017Y-39449743D01*
X274971493Y-39467922D01*
X274986107Y-39487627D01*
X274998720Y-39508671D01*
X275009210Y-39530849D01*
X275017475Y-39553949D01*
X275023436Y-39577747D01*
X275027036Y-39602016D01*
X275028240Y-39626520D01*
X275028240Y-40576520D01*
X275027036Y-40601024D01*
X275023436Y-40625293D01*
X275017475Y-40649091D01*
X275009210Y-40672191D01*
X274998720Y-40694369D01*
X274986107Y-40715413D01*
X274971493Y-40735118D01*
X274955017Y-40753297D01*
X274936838Y-40769773D01*
X274917133Y-40784387D01*
X274896089Y-40797000D01*
X274873911Y-40807490D01*
X274850811Y-40815755D01*
X274827013Y-40821716D01*
X274802744Y-40825316D01*
X274778240Y-40826520D01*
X274278240Y-40826520D01*
X274253736Y-40825316D01*
X274229467Y-40821716D01*
X274205669Y-40815755D01*
X274182569Y-40807490D01*
X274160391Y-40797000D01*
X274139347Y-40784387D01*
X274119642Y-40769773D01*
X274101463Y-40753297D01*
X274084987Y-40735118D01*
X274070373Y-40715413D01*
X274057760Y-40694369D01*
X274047270Y-40672191D01*
X274039005Y-40649091D01*
X274033044Y-40625293D01*
X274029444Y-40601024D01*
X274028240Y-40576520D01*
X274028240Y-39626520D01*
X274029444Y-39602016D01*
X274033044Y-39577747D01*
X274039005Y-39553949D01*
X274047270Y-39530849D01*
X274057760Y-39508671D01*
X274070373Y-39487627D01*
X274084987Y-39467922D01*
X274101463Y-39449743D01*
X274119642Y-39433267D01*
X274139347Y-39418653D01*
X274160391Y-39406040D01*
X274182569Y-39395550D01*
X274205669Y-39387285D01*
X274229467Y-39381324D01*
X274253736Y-39377724D01*
X274278240Y-39376520D01*
X274778240Y-39376520D01*
X274802744Y-39377724D01*
X274802744Y-39377724D01*
G37*
D16*
X274528240Y-40101520D03*
D14*
G36*
X276702744Y-39377724D02*
G01*
X276727013Y-39381324D01*
X276750811Y-39387285D01*
X276773911Y-39395550D01*
X276796089Y-39406040D01*
X276817133Y-39418653D01*
X276836838Y-39433267D01*
X276855017Y-39449743D01*
X276871493Y-39467922D01*
X276886107Y-39487627D01*
X276898720Y-39508671D01*
X276909210Y-39530849D01*
X276917475Y-39553949D01*
X276923436Y-39577747D01*
X276927036Y-39602016D01*
X276928240Y-39626520D01*
X276928240Y-40576520D01*
X276927036Y-40601024D01*
X276923436Y-40625293D01*
X276917475Y-40649091D01*
X276909210Y-40672191D01*
X276898720Y-40694369D01*
X276886107Y-40715413D01*
X276871493Y-40735118D01*
X276855017Y-40753297D01*
X276836838Y-40769773D01*
X276817133Y-40784387D01*
X276796089Y-40797000D01*
X276773911Y-40807490D01*
X276750811Y-40815755D01*
X276727013Y-40821716D01*
X276702744Y-40825316D01*
X276678240Y-40826520D01*
X276178240Y-40826520D01*
X276153736Y-40825316D01*
X276129467Y-40821716D01*
X276105669Y-40815755D01*
X276082569Y-40807490D01*
X276060391Y-40797000D01*
X276039347Y-40784387D01*
X276019642Y-40769773D01*
X276001463Y-40753297D01*
X275984987Y-40735118D01*
X275970373Y-40715413D01*
X275957760Y-40694369D01*
X275947270Y-40672191D01*
X275939005Y-40649091D01*
X275933044Y-40625293D01*
X275929444Y-40601024D01*
X275928240Y-40576520D01*
X275928240Y-39626520D01*
X275929444Y-39602016D01*
X275933044Y-39577747D01*
X275939005Y-39553949D01*
X275947270Y-39530849D01*
X275957760Y-39508671D01*
X275970373Y-39487627D01*
X275984987Y-39467922D01*
X276001463Y-39449743D01*
X276019642Y-39433267D01*
X276039347Y-39418653D01*
X276060391Y-39406040D01*
X276082569Y-39395550D01*
X276105669Y-39387285D01*
X276129467Y-39381324D01*
X276153736Y-39377724D01*
X276178240Y-39376520D01*
X276678240Y-39376520D01*
X276702744Y-39377724D01*
X276702744Y-39377724D01*
G37*
D16*
X276428240Y-40101520D03*
D14*
G36*
X265940764Y-53647444D02*
G01*
X265965033Y-53651044D01*
X265988831Y-53657005D01*
X266011931Y-53665270D01*
X266034109Y-53675760D01*
X266055153Y-53688373D01*
X266074858Y-53702987D01*
X266093037Y-53719463D01*
X266109513Y-53737642D01*
X266124127Y-53757347D01*
X266136740Y-53778391D01*
X266147230Y-53800569D01*
X266155495Y-53823669D01*
X266161456Y-53847467D01*
X266165056Y-53871736D01*
X266166260Y-53896240D01*
X266166260Y-54846240D01*
X266165056Y-54870744D01*
X266161456Y-54895013D01*
X266155495Y-54918811D01*
X266147230Y-54941911D01*
X266136740Y-54964089D01*
X266124127Y-54985133D01*
X266109513Y-55004838D01*
X266093037Y-55023017D01*
X266074858Y-55039493D01*
X266055153Y-55054107D01*
X266034109Y-55066720D01*
X266011931Y-55077210D01*
X265988831Y-55085475D01*
X265965033Y-55091436D01*
X265940764Y-55095036D01*
X265916260Y-55096240D01*
X265416260Y-55096240D01*
X265391756Y-55095036D01*
X265367487Y-55091436D01*
X265343689Y-55085475D01*
X265320589Y-55077210D01*
X265298411Y-55066720D01*
X265277367Y-55054107D01*
X265257662Y-55039493D01*
X265239483Y-55023017D01*
X265223007Y-55004838D01*
X265208393Y-54985133D01*
X265195780Y-54964089D01*
X265185290Y-54941911D01*
X265177025Y-54918811D01*
X265171064Y-54895013D01*
X265167464Y-54870744D01*
X265166260Y-54846240D01*
X265166260Y-53896240D01*
X265167464Y-53871736D01*
X265171064Y-53847467D01*
X265177025Y-53823669D01*
X265185290Y-53800569D01*
X265195780Y-53778391D01*
X265208393Y-53757347D01*
X265223007Y-53737642D01*
X265239483Y-53719463D01*
X265257662Y-53702987D01*
X265277367Y-53688373D01*
X265298411Y-53675760D01*
X265320589Y-53665270D01*
X265343689Y-53657005D01*
X265367487Y-53651044D01*
X265391756Y-53647444D01*
X265416260Y-53646240D01*
X265916260Y-53646240D01*
X265940764Y-53647444D01*
X265940764Y-53647444D01*
G37*
D16*
X265666260Y-54371240D03*
D14*
G36*
X264040764Y-53647444D02*
G01*
X264065033Y-53651044D01*
X264088831Y-53657005D01*
X264111931Y-53665270D01*
X264134109Y-53675760D01*
X264155153Y-53688373D01*
X264174858Y-53702987D01*
X264193037Y-53719463D01*
X264209513Y-53737642D01*
X264224127Y-53757347D01*
X264236740Y-53778391D01*
X264247230Y-53800569D01*
X264255495Y-53823669D01*
X264261456Y-53847467D01*
X264265056Y-53871736D01*
X264266260Y-53896240D01*
X264266260Y-54846240D01*
X264265056Y-54870744D01*
X264261456Y-54895013D01*
X264255495Y-54918811D01*
X264247230Y-54941911D01*
X264236740Y-54964089D01*
X264224127Y-54985133D01*
X264209513Y-55004838D01*
X264193037Y-55023017D01*
X264174858Y-55039493D01*
X264155153Y-55054107D01*
X264134109Y-55066720D01*
X264111931Y-55077210D01*
X264088831Y-55085475D01*
X264065033Y-55091436D01*
X264040764Y-55095036D01*
X264016260Y-55096240D01*
X263516260Y-55096240D01*
X263491756Y-55095036D01*
X263467487Y-55091436D01*
X263443689Y-55085475D01*
X263420589Y-55077210D01*
X263398411Y-55066720D01*
X263377367Y-55054107D01*
X263357662Y-55039493D01*
X263339483Y-55023017D01*
X263323007Y-55004838D01*
X263308393Y-54985133D01*
X263295780Y-54964089D01*
X263285290Y-54941911D01*
X263277025Y-54918811D01*
X263271064Y-54895013D01*
X263267464Y-54870744D01*
X263266260Y-54846240D01*
X263266260Y-53896240D01*
X263267464Y-53871736D01*
X263271064Y-53847467D01*
X263277025Y-53823669D01*
X263285290Y-53800569D01*
X263295780Y-53778391D01*
X263308393Y-53757347D01*
X263323007Y-53737642D01*
X263339483Y-53719463D01*
X263357662Y-53702987D01*
X263377367Y-53688373D01*
X263398411Y-53675760D01*
X263420589Y-53665270D01*
X263443689Y-53657005D01*
X263467487Y-53651044D01*
X263491756Y-53647444D01*
X263516260Y-53646240D01*
X264016260Y-53646240D01*
X264040764Y-53647444D01*
X264040764Y-53647444D01*
G37*
D16*
X263766260Y-54371240D03*
D14*
G36*
X280168744Y-46431204D02*
G01*
X280193013Y-46434804D01*
X280216811Y-46440765D01*
X280239911Y-46449030D01*
X280262089Y-46459520D01*
X280283133Y-46472133D01*
X280302838Y-46486747D01*
X280321017Y-46503223D01*
X280337493Y-46521402D01*
X280352107Y-46541107D01*
X280364720Y-46562151D01*
X280375210Y-46584329D01*
X280383475Y-46607429D01*
X280389436Y-46631227D01*
X280393036Y-46655496D01*
X280394240Y-46680000D01*
X280394240Y-47180000D01*
X280393036Y-47204504D01*
X280389436Y-47228773D01*
X280383475Y-47252571D01*
X280375210Y-47275671D01*
X280364720Y-47297849D01*
X280352107Y-47318893D01*
X280337493Y-47338598D01*
X280321017Y-47356777D01*
X280302838Y-47373253D01*
X280283133Y-47387867D01*
X280262089Y-47400480D01*
X280239911Y-47410970D01*
X280216811Y-47419235D01*
X280193013Y-47425196D01*
X280168744Y-47428796D01*
X280144240Y-47430000D01*
X279194240Y-47430000D01*
X279169736Y-47428796D01*
X279145467Y-47425196D01*
X279121669Y-47419235D01*
X279098569Y-47410970D01*
X279076391Y-47400480D01*
X279055347Y-47387867D01*
X279035642Y-47373253D01*
X279017463Y-47356777D01*
X279000987Y-47338598D01*
X278986373Y-47318893D01*
X278973760Y-47297849D01*
X278963270Y-47275671D01*
X278955005Y-47252571D01*
X278949044Y-47228773D01*
X278945444Y-47204504D01*
X278944240Y-47180000D01*
X278944240Y-46680000D01*
X278945444Y-46655496D01*
X278949044Y-46631227D01*
X278955005Y-46607429D01*
X278963270Y-46584329D01*
X278973760Y-46562151D01*
X278986373Y-46541107D01*
X279000987Y-46521402D01*
X279017463Y-46503223D01*
X279035642Y-46486747D01*
X279055347Y-46472133D01*
X279076391Y-46459520D01*
X279098569Y-46449030D01*
X279121669Y-46440765D01*
X279145467Y-46434804D01*
X279169736Y-46431204D01*
X279194240Y-46430000D01*
X280144240Y-46430000D01*
X280168744Y-46431204D01*
X280168744Y-46431204D01*
G37*
D16*
X279669240Y-46930000D03*
D14*
G36*
X280168744Y-48331204D02*
G01*
X280193013Y-48334804D01*
X280216811Y-48340765D01*
X280239911Y-48349030D01*
X280262089Y-48359520D01*
X280283133Y-48372133D01*
X280302838Y-48386747D01*
X280321017Y-48403223D01*
X280337493Y-48421402D01*
X280352107Y-48441107D01*
X280364720Y-48462151D01*
X280375210Y-48484329D01*
X280383475Y-48507429D01*
X280389436Y-48531227D01*
X280393036Y-48555496D01*
X280394240Y-48580000D01*
X280394240Y-49080000D01*
X280393036Y-49104504D01*
X280389436Y-49128773D01*
X280383475Y-49152571D01*
X280375210Y-49175671D01*
X280364720Y-49197849D01*
X280352107Y-49218893D01*
X280337493Y-49238598D01*
X280321017Y-49256777D01*
X280302838Y-49273253D01*
X280283133Y-49287867D01*
X280262089Y-49300480D01*
X280239911Y-49310970D01*
X280216811Y-49319235D01*
X280193013Y-49325196D01*
X280168744Y-49328796D01*
X280144240Y-49330000D01*
X279194240Y-49330000D01*
X279169736Y-49328796D01*
X279145467Y-49325196D01*
X279121669Y-49319235D01*
X279098569Y-49310970D01*
X279076391Y-49300480D01*
X279055347Y-49287867D01*
X279035642Y-49273253D01*
X279017463Y-49256777D01*
X279000987Y-49238598D01*
X278986373Y-49218893D01*
X278973760Y-49197849D01*
X278963270Y-49175671D01*
X278955005Y-49152571D01*
X278949044Y-49128773D01*
X278945444Y-49104504D01*
X278944240Y-49080000D01*
X278944240Y-48580000D01*
X278945444Y-48555496D01*
X278949044Y-48531227D01*
X278955005Y-48507429D01*
X278963270Y-48484329D01*
X278973760Y-48462151D01*
X278986373Y-48441107D01*
X279000987Y-48421402D01*
X279017463Y-48403223D01*
X279035642Y-48386747D01*
X279055347Y-48372133D01*
X279076391Y-48359520D01*
X279098569Y-48349030D01*
X279121669Y-48340765D01*
X279145467Y-48334804D01*
X279169736Y-48331204D01*
X279194240Y-48330000D01*
X280144240Y-48330000D01*
X280168744Y-48331204D01*
X280168744Y-48331204D01*
G37*
D16*
X279669240Y-48830000D03*
D14*
G36*
X275342744Y-57575724D02*
G01*
X275367013Y-57579324D01*
X275390811Y-57585285D01*
X275413911Y-57593550D01*
X275436089Y-57604040D01*
X275457133Y-57616653D01*
X275476838Y-57631267D01*
X275495017Y-57647743D01*
X275511493Y-57665922D01*
X275526107Y-57685627D01*
X275538720Y-57706671D01*
X275549210Y-57728849D01*
X275557475Y-57751949D01*
X275563436Y-57775747D01*
X275567036Y-57800016D01*
X275568240Y-57824520D01*
X275568240Y-58324520D01*
X275567036Y-58349024D01*
X275563436Y-58373293D01*
X275557475Y-58397091D01*
X275549210Y-58420191D01*
X275538720Y-58442369D01*
X275526107Y-58463413D01*
X275511493Y-58483118D01*
X275495017Y-58501297D01*
X275476838Y-58517773D01*
X275457133Y-58532387D01*
X275436089Y-58545000D01*
X275413911Y-58555490D01*
X275390811Y-58563755D01*
X275367013Y-58569716D01*
X275342744Y-58573316D01*
X275318240Y-58574520D01*
X274368240Y-58574520D01*
X274343736Y-58573316D01*
X274319467Y-58569716D01*
X274295669Y-58563755D01*
X274272569Y-58555490D01*
X274250391Y-58545000D01*
X274229347Y-58532387D01*
X274209642Y-58517773D01*
X274191463Y-58501297D01*
X274174987Y-58483118D01*
X274160373Y-58463413D01*
X274147760Y-58442369D01*
X274137270Y-58420191D01*
X274129005Y-58397091D01*
X274123044Y-58373293D01*
X274119444Y-58349024D01*
X274118240Y-58324520D01*
X274118240Y-57824520D01*
X274119444Y-57800016D01*
X274123044Y-57775747D01*
X274129005Y-57751949D01*
X274137270Y-57728849D01*
X274147760Y-57706671D01*
X274160373Y-57685627D01*
X274174987Y-57665922D01*
X274191463Y-57647743D01*
X274209642Y-57631267D01*
X274229347Y-57616653D01*
X274250391Y-57604040D01*
X274272569Y-57593550D01*
X274295669Y-57585285D01*
X274319467Y-57579324D01*
X274343736Y-57575724D01*
X274368240Y-57574520D01*
X275318240Y-57574520D01*
X275342744Y-57575724D01*
X275342744Y-57575724D01*
G37*
D16*
X274843240Y-58074520D03*
D14*
G36*
X275342744Y-59475724D02*
G01*
X275367013Y-59479324D01*
X275390811Y-59485285D01*
X275413911Y-59493550D01*
X275436089Y-59504040D01*
X275457133Y-59516653D01*
X275476838Y-59531267D01*
X275495017Y-59547743D01*
X275511493Y-59565922D01*
X275526107Y-59585627D01*
X275538720Y-59606671D01*
X275549210Y-59628849D01*
X275557475Y-59651949D01*
X275563436Y-59675747D01*
X275567036Y-59700016D01*
X275568240Y-59724520D01*
X275568240Y-60224520D01*
X275567036Y-60249024D01*
X275563436Y-60273293D01*
X275557475Y-60297091D01*
X275549210Y-60320191D01*
X275538720Y-60342369D01*
X275526107Y-60363413D01*
X275511493Y-60383118D01*
X275495017Y-60401297D01*
X275476838Y-60417773D01*
X275457133Y-60432387D01*
X275436089Y-60445000D01*
X275413911Y-60455490D01*
X275390811Y-60463755D01*
X275367013Y-60469716D01*
X275342744Y-60473316D01*
X275318240Y-60474520D01*
X274368240Y-60474520D01*
X274343736Y-60473316D01*
X274319467Y-60469716D01*
X274295669Y-60463755D01*
X274272569Y-60455490D01*
X274250391Y-60445000D01*
X274229347Y-60432387D01*
X274209642Y-60417773D01*
X274191463Y-60401297D01*
X274174987Y-60383118D01*
X274160373Y-60363413D01*
X274147760Y-60342369D01*
X274137270Y-60320191D01*
X274129005Y-60297091D01*
X274123044Y-60273293D01*
X274119444Y-60249024D01*
X274118240Y-60224520D01*
X274118240Y-59724520D01*
X274119444Y-59700016D01*
X274123044Y-59675747D01*
X274129005Y-59651949D01*
X274137270Y-59628849D01*
X274147760Y-59606671D01*
X274160373Y-59585627D01*
X274174987Y-59565922D01*
X274191463Y-59547743D01*
X274209642Y-59531267D01*
X274229347Y-59516653D01*
X274250391Y-59504040D01*
X274272569Y-59493550D01*
X274295669Y-59485285D01*
X274319467Y-59479324D01*
X274343736Y-59475724D01*
X274368240Y-59474520D01*
X275318240Y-59474520D01*
X275342744Y-59475724D01*
X275342744Y-59475724D01*
G37*
D16*
X274843240Y-59974520D03*
D14*
G36*
X268738744Y-59475724D02*
G01*
X268763013Y-59479324D01*
X268786811Y-59485285D01*
X268809911Y-59493550D01*
X268832089Y-59504040D01*
X268853133Y-59516653D01*
X268872838Y-59531267D01*
X268891017Y-59547743D01*
X268907493Y-59565922D01*
X268922107Y-59585627D01*
X268934720Y-59606671D01*
X268945210Y-59628849D01*
X268953475Y-59651949D01*
X268959436Y-59675747D01*
X268963036Y-59700016D01*
X268964240Y-59724520D01*
X268964240Y-60224520D01*
X268963036Y-60249024D01*
X268959436Y-60273293D01*
X268953475Y-60297091D01*
X268945210Y-60320191D01*
X268934720Y-60342369D01*
X268922107Y-60363413D01*
X268907493Y-60383118D01*
X268891017Y-60401297D01*
X268872838Y-60417773D01*
X268853133Y-60432387D01*
X268832089Y-60445000D01*
X268809911Y-60455490D01*
X268786811Y-60463755D01*
X268763013Y-60469716D01*
X268738744Y-60473316D01*
X268714240Y-60474520D01*
X267764240Y-60474520D01*
X267739736Y-60473316D01*
X267715467Y-60469716D01*
X267691669Y-60463755D01*
X267668569Y-60455490D01*
X267646391Y-60445000D01*
X267625347Y-60432387D01*
X267605642Y-60417773D01*
X267587463Y-60401297D01*
X267570987Y-60383118D01*
X267556373Y-60363413D01*
X267543760Y-60342369D01*
X267533270Y-60320191D01*
X267525005Y-60297091D01*
X267519044Y-60273293D01*
X267515444Y-60249024D01*
X267514240Y-60224520D01*
X267514240Y-59724520D01*
X267515444Y-59700016D01*
X267519044Y-59675747D01*
X267525005Y-59651949D01*
X267533270Y-59628849D01*
X267543760Y-59606671D01*
X267556373Y-59585627D01*
X267570987Y-59565922D01*
X267587463Y-59547743D01*
X267605642Y-59531267D01*
X267625347Y-59516653D01*
X267646391Y-59504040D01*
X267668569Y-59493550D01*
X267691669Y-59485285D01*
X267715467Y-59479324D01*
X267739736Y-59475724D01*
X267764240Y-59474520D01*
X268714240Y-59474520D01*
X268738744Y-59475724D01*
X268738744Y-59475724D01*
G37*
D16*
X268239240Y-59974520D03*
D14*
G36*
X268738744Y-57575724D02*
G01*
X268763013Y-57579324D01*
X268786811Y-57585285D01*
X268809911Y-57593550D01*
X268832089Y-57604040D01*
X268853133Y-57616653D01*
X268872838Y-57631267D01*
X268891017Y-57647743D01*
X268907493Y-57665922D01*
X268922107Y-57685627D01*
X268934720Y-57706671D01*
X268945210Y-57728849D01*
X268953475Y-57751949D01*
X268959436Y-57775747D01*
X268963036Y-57800016D01*
X268964240Y-57824520D01*
X268964240Y-58324520D01*
X268963036Y-58349024D01*
X268959436Y-58373293D01*
X268953475Y-58397091D01*
X268945210Y-58420191D01*
X268934720Y-58442369D01*
X268922107Y-58463413D01*
X268907493Y-58483118D01*
X268891017Y-58501297D01*
X268872838Y-58517773D01*
X268853133Y-58532387D01*
X268832089Y-58545000D01*
X268809911Y-58555490D01*
X268786811Y-58563755D01*
X268763013Y-58569716D01*
X268738744Y-58573316D01*
X268714240Y-58574520D01*
X267764240Y-58574520D01*
X267739736Y-58573316D01*
X267715467Y-58569716D01*
X267691669Y-58563755D01*
X267668569Y-58555490D01*
X267646391Y-58545000D01*
X267625347Y-58532387D01*
X267605642Y-58517773D01*
X267587463Y-58501297D01*
X267570987Y-58483118D01*
X267556373Y-58463413D01*
X267543760Y-58442369D01*
X267533270Y-58420191D01*
X267525005Y-58397091D01*
X267519044Y-58373293D01*
X267515444Y-58349024D01*
X267514240Y-58324520D01*
X267514240Y-57824520D01*
X267515444Y-57800016D01*
X267519044Y-57775747D01*
X267525005Y-57751949D01*
X267533270Y-57728849D01*
X267543760Y-57706671D01*
X267556373Y-57685627D01*
X267570987Y-57665922D01*
X267587463Y-57647743D01*
X267605642Y-57631267D01*
X267625347Y-57616653D01*
X267646391Y-57604040D01*
X267668569Y-57593550D01*
X267691669Y-57585285D01*
X267715467Y-57579324D01*
X267739736Y-57575724D01*
X267764240Y-57574520D01*
X268714240Y-57574520D01*
X268738744Y-57575724D01*
X268738744Y-57575724D01*
G37*
D16*
X268239240Y-58074520D03*
D10*
X337185000Y-59104000D03*
X337185000Y-55704000D03*
X289560000Y-107237000D03*
X289560000Y-103837000D03*
X184531000Y-40181000D03*
X184531000Y-36781000D03*
X137668000Y-97077000D03*
X137668000Y-93677000D03*
X39370000Y-97077000D03*
X39370000Y-93677000D03*
D14*
G36*
X286659703Y-32790722D02*
G01*
X286674264Y-32792882D01*
X286688543Y-32796459D01*
X286702403Y-32801418D01*
X286715710Y-32807712D01*
X286728336Y-32815280D01*
X286740159Y-32824048D01*
X286751066Y-32833934D01*
X286760952Y-32844841D01*
X286769720Y-32856664D01*
X286777288Y-32869290D01*
X286783582Y-32882597D01*
X286788541Y-32896457D01*
X286792118Y-32910736D01*
X286794278Y-32925297D01*
X286795000Y-32940000D01*
X286795000Y-33240000D01*
X286794278Y-33254703D01*
X286792118Y-33269264D01*
X286788541Y-33283543D01*
X286783582Y-33297403D01*
X286777288Y-33310710D01*
X286769720Y-33323336D01*
X286760952Y-33335159D01*
X286751066Y-33346066D01*
X286740159Y-33355952D01*
X286728336Y-33364720D01*
X286715710Y-33372288D01*
X286702403Y-33378582D01*
X286688543Y-33383541D01*
X286674264Y-33387118D01*
X286659703Y-33389278D01*
X286645000Y-33390000D01*
X285620000Y-33390000D01*
X285605297Y-33389278D01*
X285590736Y-33387118D01*
X285576457Y-33383541D01*
X285562597Y-33378582D01*
X285549290Y-33372288D01*
X285536664Y-33364720D01*
X285524841Y-33355952D01*
X285513934Y-33346066D01*
X285504048Y-33335159D01*
X285495280Y-33323336D01*
X285487712Y-33310710D01*
X285481418Y-33297403D01*
X285476459Y-33283543D01*
X285472882Y-33269264D01*
X285470722Y-33254703D01*
X285470000Y-33240000D01*
X285470000Y-32940000D01*
X285470722Y-32925297D01*
X285472882Y-32910736D01*
X285476459Y-32896457D01*
X285481418Y-32882597D01*
X285487712Y-32869290D01*
X285495280Y-32856664D01*
X285504048Y-32844841D01*
X285513934Y-32833934D01*
X285524841Y-32824048D01*
X285536664Y-32815280D01*
X285549290Y-32807712D01*
X285562597Y-32801418D01*
X285576457Y-32796459D01*
X285590736Y-32792882D01*
X285605297Y-32790722D01*
X285620000Y-32790000D01*
X286645000Y-32790000D01*
X286659703Y-32790722D01*
X286659703Y-32790722D01*
G37*
D17*
X286132500Y-33090000D03*
D14*
G36*
X286659703Y-33740722D02*
G01*
X286674264Y-33742882D01*
X286688543Y-33746459D01*
X286702403Y-33751418D01*
X286715710Y-33757712D01*
X286728336Y-33765280D01*
X286740159Y-33774048D01*
X286751066Y-33783934D01*
X286760952Y-33794841D01*
X286769720Y-33806664D01*
X286777288Y-33819290D01*
X286783582Y-33832597D01*
X286788541Y-33846457D01*
X286792118Y-33860736D01*
X286794278Y-33875297D01*
X286795000Y-33890000D01*
X286795000Y-34190000D01*
X286794278Y-34204703D01*
X286792118Y-34219264D01*
X286788541Y-34233543D01*
X286783582Y-34247403D01*
X286777288Y-34260710D01*
X286769720Y-34273336D01*
X286760952Y-34285159D01*
X286751066Y-34296066D01*
X286740159Y-34305952D01*
X286728336Y-34314720D01*
X286715710Y-34322288D01*
X286702403Y-34328582D01*
X286688543Y-34333541D01*
X286674264Y-34337118D01*
X286659703Y-34339278D01*
X286645000Y-34340000D01*
X285620000Y-34340000D01*
X285605297Y-34339278D01*
X285590736Y-34337118D01*
X285576457Y-34333541D01*
X285562597Y-34328582D01*
X285549290Y-34322288D01*
X285536664Y-34314720D01*
X285524841Y-34305952D01*
X285513934Y-34296066D01*
X285504048Y-34285159D01*
X285495280Y-34273336D01*
X285487712Y-34260710D01*
X285481418Y-34247403D01*
X285476459Y-34233543D01*
X285472882Y-34219264D01*
X285470722Y-34204703D01*
X285470000Y-34190000D01*
X285470000Y-33890000D01*
X285470722Y-33875297D01*
X285472882Y-33860736D01*
X285476459Y-33846457D01*
X285481418Y-33832597D01*
X285487712Y-33819290D01*
X285495280Y-33806664D01*
X285504048Y-33794841D01*
X285513934Y-33783934D01*
X285524841Y-33774048D01*
X285536664Y-33765280D01*
X285549290Y-33757712D01*
X285562597Y-33751418D01*
X285576457Y-33746459D01*
X285590736Y-33742882D01*
X285605297Y-33740722D01*
X285620000Y-33740000D01*
X286645000Y-33740000D01*
X286659703Y-33740722D01*
X286659703Y-33740722D01*
G37*
D17*
X286132500Y-34040000D03*
D14*
G36*
X286659703Y-34690722D02*
G01*
X286674264Y-34692882D01*
X286688543Y-34696459D01*
X286702403Y-34701418D01*
X286715710Y-34707712D01*
X286728336Y-34715280D01*
X286740159Y-34724048D01*
X286751066Y-34733934D01*
X286760952Y-34744841D01*
X286769720Y-34756664D01*
X286777288Y-34769290D01*
X286783582Y-34782597D01*
X286788541Y-34796457D01*
X286792118Y-34810736D01*
X286794278Y-34825297D01*
X286795000Y-34840000D01*
X286795000Y-35140000D01*
X286794278Y-35154703D01*
X286792118Y-35169264D01*
X286788541Y-35183543D01*
X286783582Y-35197403D01*
X286777288Y-35210710D01*
X286769720Y-35223336D01*
X286760952Y-35235159D01*
X286751066Y-35246066D01*
X286740159Y-35255952D01*
X286728336Y-35264720D01*
X286715710Y-35272288D01*
X286702403Y-35278582D01*
X286688543Y-35283541D01*
X286674264Y-35287118D01*
X286659703Y-35289278D01*
X286645000Y-35290000D01*
X285620000Y-35290000D01*
X285605297Y-35289278D01*
X285590736Y-35287118D01*
X285576457Y-35283541D01*
X285562597Y-35278582D01*
X285549290Y-35272288D01*
X285536664Y-35264720D01*
X285524841Y-35255952D01*
X285513934Y-35246066D01*
X285504048Y-35235159D01*
X285495280Y-35223336D01*
X285487712Y-35210710D01*
X285481418Y-35197403D01*
X285476459Y-35183543D01*
X285472882Y-35169264D01*
X285470722Y-35154703D01*
X285470000Y-35140000D01*
X285470000Y-34840000D01*
X285470722Y-34825297D01*
X285472882Y-34810736D01*
X285476459Y-34796457D01*
X285481418Y-34782597D01*
X285487712Y-34769290D01*
X285495280Y-34756664D01*
X285504048Y-34744841D01*
X285513934Y-34733934D01*
X285524841Y-34724048D01*
X285536664Y-34715280D01*
X285549290Y-34707712D01*
X285562597Y-34701418D01*
X285576457Y-34696459D01*
X285590736Y-34692882D01*
X285605297Y-34690722D01*
X285620000Y-34690000D01*
X286645000Y-34690000D01*
X286659703Y-34690722D01*
X286659703Y-34690722D01*
G37*
D17*
X286132500Y-34990000D03*
D14*
G36*
X288934703Y-34690722D02*
G01*
X288949264Y-34692882D01*
X288963543Y-34696459D01*
X288977403Y-34701418D01*
X288990710Y-34707712D01*
X289003336Y-34715280D01*
X289015159Y-34724048D01*
X289026066Y-34733934D01*
X289035952Y-34744841D01*
X289044720Y-34756664D01*
X289052288Y-34769290D01*
X289058582Y-34782597D01*
X289063541Y-34796457D01*
X289067118Y-34810736D01*
X289069278Y-34825297D01*
X289070000Y-34840000D01*
X289070000Y-35140000D01*
X289069278Y-35154703D01*
X289067118Y-35169264D01*
X289063541Y-35183543D01*
X289058582Y-35197403D01*
X289052288Y-35210710D01*
X289044720Y-35223336D01*
X289035952Y-35235159D01*
X289026066Y-35246066D01*
X289015159Y-35255952D01*
X289003336Y-35264720D01*
X288990710Y-35272288D01*
X288977403Y-35278582D01*
X288963543Y-35283541D01*
X288949264Y-35287118D01*
X288934703Y-35289278D01*
X288920000Y-35290000D01*
X287895000Y-35290000D01*
X287880297Y-35289278D01*
X287865736Y-35287118D01*
X287851457Y-35283541D01*
X287837597Y-35278582D01*
X287824290Y-35272288D01*
X287811664Y-35264720D01*
X287799841Y-35255952D01*
X287788934Y-35246066D01*
X287779048Y-35235159D01*
X287770280Y-35223336D01*
X287762712Y-35210710D01*
X287756418Y-35197403D01*
X287751459Y-35183543D01*
X287747882Y-35169264D01*
X287745722Y-35154703D01*
X287745000Y-35140000D01*
X287745000Y-34840000D01*
X287745722Y-34825297D01*
X287747882Y-34810736D01*
X287751459Y-34796457D01*
X287756418Y-34782597D01*
X287762712Y-34769290D01*
X287770280Y-34756664D01*
X287779048Y-34744841D01*
X287788934Y-34733934D01*
X287799841Y-34724048D01*
X287811664Y-34715280D01*
X287824290Y-34707712D01*
X287837597Y-34701418D01*
X287851457Y-34696459D01*
X287865736Y-34692882D01*
X287880297Y-34690722D01*
X287895000Y-34690000D01*
X288920000Y-34690000D01*
X288934703Y-34690722D01*
X288934703Y-34690722D01*
G37*
D17*
X288407500Y-34990000D03*
D14*
G36*
X288934703Y-33740722D02*
G01*
X288949264Y-33742882D01*
X288963543Y-33746459D01*
X288977403Y-33751418D01*
X288990710Y-33757712D01*
X289003336Y-33765280D01*
X289015159Y-33774048D01*
X289026066Y-33783934D01*
X289035952Y-33794841D01*
X289044720Y-33806664D01*
X289052288Y-33819290D01*
X289058582Y-33832597D01*
X289063541Y-33846457D01*
X289067118Y-33860736D01*
X289069278Y-33875297D01*
X289070000Y-33890000D01*
X289070000Y-34190000D01*
X289069278Y-34204703D01*
X289067118Y-34219264D01*
X289063541Y-34233543D01*
X289058582Y-34247403D01*
X289052288Y-34260710D01*
X289044720Y-34273336D01*
X289035952Y-34285159D01*
X289026066Y-34296066D01*
X289015159Y-34305952D01*
X289003336Y-34314720D01*
X288990710Y-34322288D01*
X288977403Y-34328582D01*
X288963543Y-34333541D01*
X288949264Y-34337118D01*
X288934703Y-34339278D01*
X288920000Y-34340000D01*
X287895000Y-34340000D01*
X287880297Y-34339278D01*
X287865736Y-34337118D01*
X287851457Y-34333541D01*
X287837597Y-34328582D01*
X287824290Y-34322288D01*
X287811664Y-34314720D01*
X287799841Y-34305952D01*
X287788934Y-34296066D01*
X287779048Y-34285159D01*
X287770280Y-34273336D01*
X287762712Y-34260710D01*
X287756418Y-34247403D01*
X287751459Y-34233543D01*
X287747882Y-34219264D01*
X287745722Y-34204703D01*
X287745000Y-34190000D01*
X287745000Y-33890000D01*
X287745722Y-33875297D01*
X287747882Y-33860736D01*
X287751459Y-33846457D01*
X287756418Y-33832597D01*
X287762712Y-33819290D01*
X287770280Y-33806664D01*
X287779048Y-33794841D01*
X287788934Y-33783934D01*
X287799841Y-33774048D01*
X287811664Y-33765280D01*
X287824290Y-33757712D01*
X287837597Y-33751418D01*
X287851457Y-33746459D01*
X287865736Y-33742882D01*
X287880297Y-33740722D01*
X287895000Y-33740000D01*
X288920000Y-33740000D01*
X288934703Y-33740722D01*
X288934703Y-33740722D01*
G37*
D17*
X288407500Y-34040000D03*
D14*
G36*
X288934703Y-32790722D02*
G01*
X288949264Y-32792882D01*
X288963543Y-32796459D01*
X288977403Y-32801418D01*
X288990710Y-32807712D01*
X289003336Y-32815280D01*
X289015159Y-32824048D01*
X289026066Y-32833934D01*
X289035952Y-32844841D01*
X289044720Y-32856664D01*
X289052288Y-32869290D01*
X289058582Y-32882597D01*
X289063541Y-32896457D01*
X289067118Y-32910736D01*
X289069278Y-32925297D01*
X289070000Y-32940000D01*
X289070000Y-33240000D01*
X289069278Y-33254703D01*
X289067118Y-33269264D01*
X289063541Y-33283543D01*
X289058582Y-33297403D01*
X289052288Y-33310710D01*
X289044720Y-33323336D01*
X289035952Y-33335159D01*
X289026066Y-33346066D01*
X289015159Y-33355952D01*
X289003336Y-33364720D01*
X288990710Y-33372288D01*
X288977403Y-33378582D01*
X288963543Y-33383541D01*
X288949264Y-33387118D01*
X288934703Y-33389278D01*
X288920000Y-33390000D01*
X287895000Y-33390000D01*
X287880297Y-33389278D01*
X287865736Y-33387118D01*
X287851457Y-33383541D01*
X287837597Y-33378582D01*
X287824290Y-33372288D01*
X287811664Y-33364720D01*
X287799841Y-33355952D01*
X287788934Y-33346066D01*
X287779048Y-33335159D01*
X287770280Y-33323336D01*
X287762712Y-33310710D01*
X287756418Y-33297403D01*
X287751459Y-33283543D01*
X287747882Y-33269264D01*
X287745722Y-33254703D01*
X287745000Y-33240000D01*
X287745000Y-32940000D01*
X287745722Y-32925297D01*
X287747882Y-32910736D01*
X287751459Y-32896457D01*
X287756418Y-32882597D01*
X287762712Y-32869290D01*
X287770280Y-32856664D01*
X287779048Y-32844841D01*
X287788934Y-32833934D01*
X287799841Y-32824048D01*
X287811664Y-32815280D01*
X287824290Y-32807712D01*
X287837597Y-32801418D01*
X287851457Y-32796459D01*
X287865736Y-32792882D01*
X287880297Y-32790722D01*
X287895000Y-32790000D01*
X288920000Y-32790000D01*
X288934703Y-32790722D01*
X288934703Y-32790722D01*
G37*
D17*
X288407500Y-33090000D03*
D14*
G36*
X281044505Y-24836204D02*
G01*
X281068773Y-24839804D01*
X281092572Y-24845765D01*
X281115671Y-24854030D01*
X281137850Y-24864520D01*
X281158893Y-24877132D01*
X281178599Y-24891747D01*
X281196777Y-24908223D01*
X281213253Y-24926401D01*
X281227868Y-24946107D01*
X281240480Y-24967150D01*
X281250970Y-24989329D01*
X281259235Y-25012428D01*
X281265196Y-25036227D01*
X281268796Y-25060495D01*
X281270000Y-25084999D01*
X281270000Y-25610001D01*
X281268796Y-25634505D01*
X281265196Y-25658773D01*
X281259235Y-25682572D01*
X281250970Y-25705671D01*
X281240480Y-25727850D01*
X281227868Y-25748893D01*
X281213253Y-25768599D01*
X281196777Y-25786777D01*
X281178599Y-25803253D01*
X281158893Y-25817868D01*
X281137850Y-25830480D01*
X281115671Y-25840970D01*
X281092572Y-25849235D01*
X281068773Y-25855196D01*
X281044505Y-25858796D01*
X281020001Y-25860000D01*
X280119999Y-25860000D01*
X280095495Y-25858796D01*
X280071227Y-25855196D01*
X280047428Y-25849235D01*
X280024329Y-25840970D01*
X280002150Y-25830480D01*
X279981107Y-25817868D01*
X279961401Y-25803253D01*
X279943223Y-25786777D01*
X279926747Y-25768599D01*
X279912132Y-25748893D01*
X279899520Y-25727850D01*
X279889030Y-25705671D01*
X279880765Y-25682572D01*
X279874804Y-25658773D01*
X279871204Y-25634505D01*
X279870000Y-25610001D01*
X279870000Y-25084999D01*
X279871204Y-25060495D01*
X279874804Y-25036227D01*
X279880765Y-25012428D01*
X279889030Y-24989329D01*
X279899520Y-24967150D01*
X279912132Y-24946107D01*
X279926747Y-24926401D01*
X279943223Y-24908223D01*
X279961401Y-24891747D01*
X279981107Y-24877132D01*
X280002150Y-24864520D01*
X280024329Y-24854030D01*
X280047428Y-24845765D01*
X280071227Y-24839804D01*
X280095495Y-24836204D01*
X280119999Y-24835000D01*
X281020001Y-24835000D01*
X281044505Y-24836204D01*
X281044505Y-24836204D01*
G37*
D15*
X280570000Y-25347500D03*
D14*
G36*
X281044505Y-26661204D02*
G01*
X281068773Y-26664804D01*
X281092572Y-26670765D01*
X281115671Y-26679030D01*
X281137850Y-26689520D01*
X281158893Y-26702132D01*
X281178599Y-26716747D01*
X281196777Y-26733223D01*
X281213253Y-26751401D01*
X281227868Y-26771107D01*
X281240480Y-26792150D01*
X281250970Y-26814329D01*
X281259235Y-26837428D01*
X281265196Y-26861227D01*
X281268796Y-26885495D01*
X281270000Y-26909999D01*
X281270000Y-27435001D01*
X281268796Y-27459505D01*
X281265196Y-27483773D01*
X281259235Y-27507572D01*
X281250970Y-27530671D01*
X281240480Y-27552850D01*
X281227868Y-27573893D01*
X281213253Y-27593599D01*
X281196777Y-27611777D01*
X281178599Y-27628253D01*
X281158893Y-27642868D01*
X281137850Y-27655480D01*
X281115671Y-27665970D01*
X281092572Y-27674235D01*
X281068773Y-27680196D01*
X281044505Y-27683796D01*
X281020001Y-27685000D01*
X280119999Y-27685000D01*
X280095495Y-27683796D01*
X280071227Y-27680196D01*
X280047428Y-27674235D01*
X280024329Y-27665970D01*
X280002150Y-27655480D01*
X279981107Y-27642868D01*
X279961401Y-27628253D01*
X279943223Y-27611777D01*
X279926747Y-27593599D01*
X279912132Y-27573893D01*
X279899520Y-27552850D01*
X279889030Y-27530671D01*
X279880765Y-27507572D01*
X279874804Y-27483773D01*
X279871204Y-27459505D01*
X279870000Y-27435001D01*
X279870000Y-26909999D01*
X279871204Y-26885495D01*
X279874804Y-26861227D01*
X279880765Y-26837428D01*
X279889030Y-26814329D01*
X279899520Y-26792150D01*
X279912132Y-26771107D01*
X279926747Y-26751401D01*
X279943223Y-26733223D01*
X279961401Y-26716747D01*
X279981107Y-26702132D01*
X280002150Y-26689520D01*
X280024329Y-26679030D01*
X280047428Y-26670765D01*
X280071227Y-26664804D01*
X280095495Y-26661204D01*
X280119999Y-26660000D01*
X281020001Y-26660000D01*
X281044505Y-26661204D01*
X281044505Y-26661204D01*
G37*
D15*
X280570000Y-27172500D03*
D14*
G36*
X282294505Y-54995724D02*
G01*
X282318773Y-54999324D01*
X282342572Y-55005285D01*
X282365671Y-55013550D01*
X282387850Y-55024040D01*
X282408893Y-55036652D01*
X282428599Y-55051267D01*
X282446777Y-55067743D01*
X282463253Y-55085921D01*
X282477868Y-55105627D01*
X282490480Y-55126670D01*
X282500970Y-55148849D01*
X282509235Y-55171948D01*
X282515196Y-55195747D01*
X282518796Y-55220015D01*
X282520000Y-55244519D01*
X282520000Y-55769521D01*
X282518796Y-55794025D01*
X282515196Y-55818293D01*
X282509235Y-55842092D01*
X282500970Y-55865191D01*
X282490480Y-55887370D01*
X282477868Y-55908413D01*
X282463253Y-55928119D01*
X282446777Y-55946297D01*
X282428599Y-55962773D01*
X282408893Y-55977388D01*
X282387850Y-55990000D01*
X282365671Y-56000490D01*
X282342572Y-56008755D01*
X282318773Y-56014716D01*
X282294505Y-56018316D01*
X282270001Y-56019520D01*
X281369999Y-56019520D01*
X281345495Y-56018316D01*
X281321227Y-56014716D01*
X281297428Y-56008755D01*
X281274329Y-56000490D01*
X281252150Y-55990000D01*
X281231107Y-55977388D01*
X281211401Y-55962773D01*
X281193223Y-55946297D01*
X281176747Y-55928119D01*
X281162132Y-55908413D01*
X281149520Y-55887370D01*
X281139030Y-55865191D01*
X281130765Y-55842092D01*
X281124804Y-55818293D01*
X281121204Y-55794025D01*
X281120000Y-55769521D01*
X281120000Y-55244519D01*
X281121204Y-55220015D01*
X281124804Y-55195747D01*
X281130765Y-55171948D01*
X281139030Y-55148849D01*
X281149520Y-55126670D01*
X281162132Y-55105627D01*
X281176747Y-55085921D01*
X281193223Y-55067743D01*
X281211401Y-55051267D01*
X281231107Y-55036652D01*
X281252150Y-55024040D01*
X281274329Y-55013550D01*
X281297428Y-55005285D01*
X281321227Y-54999324D01*
X281345495Y-54995724D01*
X281369999Y-54994520D01*
X282270001Y-54994520D01*
X282294505Y-54995724D01*
X282294505Y-54995724D01*
G37*
D15*
X281820000Y-55507020D03*
D14*
G36*
X282294505Y-56820724D02*
G01*
X282318773Y-56824324D01*
X282342572Y-56830285D01*
X282365671Y-56838550D01*
X282387850Y-56849040D01*
X282408893Y-56861652D01*
X282428599Y-56876267D01*
X282446777Y-56892743D01*
X282463253Y-56910921D01*
X282477868Y-56930627D01*
X282490480Y-56951670D01*
X282500970Y-56973849D01*
X282509235Y-56996948D01*
X282515196Y-57020747D01*
X282518796Y-57045015D01*
X282520000Y-57069519D01*
X282520000Y-57594521D01*
X282518796Y-57619025D01*
X282515196Y-57643293D01*
X282509235Y-57667092D01*
X282500970Y-57690191D01*
X282490480Y-57712370D01*
X282477868Y-57733413D01*
X282463253Y-57753119D01*
X282446777Y-57771297D01*
X282428599Y-57787773D01*
X282408893Y-57802388D01*
X282387850Y-57815000D01*
X282365671Y-57825490D01*
X282342572Y-57833755D01*
X282318773Y-57839716D01*
X282294505Y-57843316D01*
X282270001Y-57844520D01*
X281369999Y-57844520D01*
X281345495Y-57843316D01*
X281321227Y-57839716D01*
X281297428Y-57833755D01*
X281274329Y-57825490D01*
X281252150Y-57815000D01*
X281231107Y-57802388D01*
X281211401Y-57787773D01*
X281193223Y-57771297D01*
X281176747Y-57753119D01*
X281162132Y-57733413D01*
X281149520Y-57712370D01*
X281139030Y-57690191D01*
X281130765Y-57667092D01*
X281124804Y-57643293D01*
X281121204Y-57619025D01*
X281120000Y-57594521D01*
X281120000Y-57069519D01*
X281121204Y-57045015D01*
X281124804Y-57020747D01*
X281130765Y-56996948D01*
X281139030Y-56973849D01*
X281149520Y-56951670D01*
X281162132Y-56930627D01*
X281176747Y-56910921D01*
X281193223Y-56892743D01*
X281211401Y-56876267D01*
X281231107Y-56861652D01*
X281252150Y-56849040D01*
X281274329Y-56838550D01*
X281297428Y-56830285D01*
X281321227Y-56824324D01*
X281345495Y-56820724D01*
X281369999Y-56819520D01*
X282270001Y-56819520D01*
X282294505Y-56820724D01*
X282294505Y-56820724D01*
G37*
D15*
X281820000Y-57332020D03*
D14*
G36*
X267810142Y-34906174D02*
G01*
X267833803Y-34909684D01*
X267857007Y-34915496D01*
X267879529Y-34923554D01*
X267901153Y-34933782D01*
X267921670Y-34946079D01*
X267940883Y-34960329D01*
X267958607Y-34976393D01*
X267974671Y-34994117D01*
X267988921Y-35013330D01*
X268001218Y-35033847D01*
X268011446Y-35055471D01*
X268019504Y-35077993D01*
X268025316Y-35101197D01*
X268028826Y-35124858D01*
X268030000Y-35148750D01*
X268030000Y-35636250D01*
X268028826Y-35660142D01*
X268025316Y-35683803D01*
X268019504Y-35707007D01*
X268011446Y-35729529D01*
X268001218Y-35751153D01*
X267988921Y-35771670D01*
X267974671Y-35790883D01*
X267958607Y-35808607D01*
X267940883Y-35824671D01*
X267921670Y-35838921D01*
X267901153Y-35851218D01*
X267879529Y-35861446D01*
X267857007Y-35869504D01*
X267833803Y-35875316D01*
X267810142Y-35878826D01*
X267786250Y-35880000D01*
X266873750Y-35880000D01*
X266849858Y-35878826D01*
X266826197Y-35875316D01*
X266802993Y-35869504D01*
X266780471Y-35861446D01*
X266758847Y-35851218D01*
X266738330Y-35838921D01*
X266719117Y-35824671D01*
X266701393Y-35808607D01*
X266685329Y-35790883D01*
X266671079Y-35771670D01*
X266658782Y-35751153D01*
X266648554Y-35729529D01*
X266640496Y-35707007D01*
X266634684Y-35683803D01*
X266631174Y-35660142D01*
X266630000Y-35636250D01*
X266630000Y-35148750D01*
X266631174Y-35124858D01*
X266634684Y-35101197D01*
X266640496Y-35077993D01*
X266648554Y-35055471D01*
X266658782Y-35033847D01*
X266671079Y-35013330D01*
X266685329Y-34994117D01*
X266701393Y-34976393D01*
X266719117Y-34960329D01*
X266738330Y-34946079D01*
X266758847Y-34933782D01*
X266780471Y-34923554D01*
X266802993Y-34915496D01*
X266826197Y-34909684D01*
X266849858Y-34906174D01*
X266873750Y-34905000D01*
X267786250Y-34905000D01*
X267810142Y-34906174D01*
X267810142Y-34906174D01*
G37*
D18*
X267330000Y-35392500D03*
D14*
G36*
X267810142Y-36781174D02*
G01*
X267833803Y-36784684D01*
X267857007Y-36790496D01*
X267879529Y-36798554D01*
X267901153Y-36808782D01*
X267921670Y-36821079D01*
X267940883Y-36835329D01*
X267958607Y-36851393D01*
X267974671Y-36869117D01*
X267988921Y-36888330D01*
X268001218Y-36908847D01*
X268011446Y-36930471D01*
X268019504Y-36952993D01*
X268025316Y-36976197D01*
X268028826Y-36999858D01*
X268030000Y-37023750D01*
X268030000Y-37511250D01*
X268028826Y-37535142D01*
X268025316Y-37558803D01*
X268019504Y-37582007D01*
X268011446Y-37604529D01*
X268001218Y-37626153D01*
X267988921Y-37646670D01*
X267974671Y-37665883D01*
X267958607Y-37683607D01*
X267940883Y-37699671D01*
X267921670Y-37713921D01*
X267901153Y-37726218D01*
X267879529Y-37736446D01*
X267857007Y-37744504D01*
X267833803Y-37750316D01*
X267810142Y-37753826D01*
X267786250Y-37755000D01*
X266873750Y-37755000D01*
X266849858Y-37753826D01*
X266826197Y-37750316D01*
X266802993Y-37744504D01*
X266780471Y-37736446D01*
X266758847Y-37726218D01*
X266738330Y-37713921D01*
X266719117Y-37699671D01*
X266701393Y-37683607D01*
X266685329Y-37665883D01*
X266671079Y-37646670D01*
X266658782Y-37626153D01*
X266648554Y-37604529D01*
X266640496Y-37582007D01*
X266634684Y-37558803D01*
X266631174Y-37535142D01*
X266630000Y-37511250D01*
X266630000Y-37023750D01*
X266631174Y-36999858D01*
X266634684Y-36976197D01*
X266640496Y-36952993D01*
X266648554Y-36930471D01*
X266658782Y-36908847D01*
X266671079Y-36888330D01*
X266685329Y-36869117D01*
X266701393Y-36851393D01*
X266719117Y-36835329D01*
X266738330Y-36821079D01*
X266758847Y-36808782D01*
X266780471Y-36798554D01*
X266802993Y-36790496D01*
X266826197Y-36784684D01*
X266849858Y-36781174D01*
X266873750Y-36780000D01*
X267786250Y-36780000D01*
X267810142Y-36781174D01*
X267810142Y-36781174D01*
G37*
D18*
X267330000Y-37267500D03*
D10*
X356743000Y-97077000D03*
X356743000Y-93677000D03*
X337058000Y-97077000D03*
X337058000Y-93677000D03*
X308610000Y-107237000D03*
X308610000Y-103837000D03*
X270510000Y-107237000D03*
X270510000Y-103837000D03*
X245999000Y-97077000D03*
X245999000Y-93677000D03*
X220472000Y-97077000D03*
X220472000Y-93677000D03*
X175260000Y-97077000D03*
X175260000Y-93677000D03*
X356870000Y-78027000D03*
X356870000Y-74627000D03*
X337058000Y-78027000D03*
X337058000Y-74627000D03*
X318770000Y-78027000D03*
X318770000Y-74627000D03*
X293116000Y-72976000D03*
X293116000Y-76376000D03*
X260731000Y-79297000D03*
X260731000Y-75897000D03*
X241681000Y-79297000D03*
X241681000Y-75897000D03*
X222631000Y-79297000D03*
X222631000Y-75897000D03*
X203581000Y-79297000D03*
X203581000Y-75897000D03*
X184531000Y-79297000D03*
X184531000Y-75897000D03*
X356870000Y-58977000D03*
X356870000Y-55577000D03*
X318770000Y-59104000D03*
X318770000Y-55704000D03*
X260731000Y-60247000D03*
X260731000Y-56847000D03*
X241681000Y-60247000D03*
X241681000Y-56847000D03*
X222631000Y-60247000D03*
X222631000Y-56847000D03*
X203581000Y-60247000D03*
X203581000Y-56847000D03*
X184531000Y-60247000D03*
X184531000Y-56847000D03*
X356870000Y-40054000D03*
X356870000Y-36654000D03*
X337439000Y-40054000D03*
X337439000Y-36654000D03*
X318770000Y-40054000D03*
X318770000Y-36654000D03*
X260731000Y-40054000D03*
X260731000Y-36654000D03*
X241554000Y-40181000D03*
X241554000Y-36781000D03*
X222504000Y-40181000D03*
X222504000Y-36781000D03*
X203454000Y-40181000D03*
X203454000Y-36781000D03*
X161290000Y-97077000D03*
X161290000Y-93677000D03*
X118110000Y-97077000D03*
X118110000Y-93677000D03*
X87630000Y-97077000D03*
X87630000Y-93677000D03*
X58420000Y-97077000D03*
X58420000Y-93677000D03*
X166370000Y-79297000D03*
X166370000Y-75897000D03*
X146431000Y-79297000D03*
X146431000Y-75897000D03*
X128270000Y-79297000D03*
X128270000Y-75897000D03*
X108331000Y-79297000D03*
X108331000Y-75897000D03*
X89281000Y-79297000D03*
X89281000Y-75897000D03*
X70231000Y-79297000D03*
X70231000Y-75897000D03*
X51181000Y-79297000D03*
X51181000Y-75897000D03*
X32131000Y-79297000D03*
X32131000Y-75897000D03*
X167386000Y-60247000D03*
X167386000Y-56847000D03*
X146431000Y-60247000D03*
X146431000Y-56847000D03*
X129286000Y-60247000D03*
X129286000Y-56847000D03*
X108331000Y-60247000D03*
X108331000Y-56847000D03*
X89281000Y-60247000D03*
X89281000Y-56847000D03*
X70231000Y-60247000D03*
X70231000Y-56847000D03*
X51181000Y-60247000D03*
X51181000Y-56847000D03*
X31750000Y-60247000D03*
X31750000Y-56847000D03*
X166624000Y-40181000D03*
X166624000Y-36781000D03*
X146304000Y-40181000D03*
X146304000Y-36781000D03*
X129286000Y-40181000D03*
X129286000Y-36781000D03*
X108331000Y-40054000D03*
X108331000Y-36654000D03*
X89281000Y-40054000D03*
X89281000Y-36654000D03*
X70231000Y-40181000D03*
X70231000Y-36781000D03*
X51181000Y-40181000D03*
X51181000Y-36781000D03*
X31750000Y-40181000D03*
X31750000Y-36781000D03*
D14*
G36*
X279089504Y-24831204D02*
G01*
X279113773Y-24834804D01*
X279137571Y-24840765D01*
X279160671Y-24849030D01*
X279182849Y-24859520D01*
X279203893Y-24872133D01*
X279223598Y-24886747D01*
X279241777Y-24903223D01*
X279258253Y-24921402D01*
X279272867Y-24941107D01*
X279285480Y-24962151D01*
X279295970Y-24984329D01*
X279304235Y-25007429D01*
X279310196Y-25031227D01*
X279313796Y-25055496D01*
X279315000Y-25080000D01*
X279315000Y-25580000D01*
X279313796Y-25604504D01*
X279310196Y-25628773D01*
X279304235Y-25652571D01*
X279295970Y-25675671D01*
X279285480Y-25697849D01*
X279272867Y-25718893D01*
X279258253Y-25738598D01*
X279241777Y-25756777D01*
X279223598Y-25773253D01*
X279203893Y-25787867D01*
X279182849Y-25800480D01*
X279160671Y-25810970D01*
X279137571Y-25819235D01*
X279113773Y-25825196D01*
X279089504Y-25828796D01*
X279065000Y-25830000D01*
X278115000Y-25830000D01*
X278090496Y-25828796D01*
X278066227Y-25825196D01*
X278042429Y-25819235D01*
X278019329Y-25810970D01*
X277997151Y-25800480D01*
X277976107Y-25787867D01*
X277956402Y-25773253D01*
X277938223Y-25756777D01*
X277921747Y-25738598D01*
X277907133Y-25718893D01*
X277894520Y-25697849D01*
X277884030Y-25675671D01*
X277875765Y-25652571D01*
X277869804Y-25628773D01*
X277866204Y-25604504D01*
X277865000Y-25580000D01*
X277865000Y-25080000D01*
X277866204Y-25055496D01*
X277869804Y-25031227D01*
X277875765Y-25007429D01*
X277884030Y-24984329D01*
X277894520Y-24962151D01*
X277907133Y-24941107D01*
X277921747Y-24921402D01*
X277938223Y-24903223D01*
X277956402Y-24886747D01*
X277976107Y-24872133D01*
X277997151Y-24859520D01*
X278019329Y-24849030D01*
X278042429Y-24840765D01*
X278066227Y-24834804D01*
X278090496Y-24831204D01*
X278115000Y-24830000D01*
X279065000Y-24830000D01*
X279089504Y-24831204D01*
X279089504Y-24831204D01*
G37*
D16*
X278590000Y-25330000D03*
D14*
G36*
X279089504Y-26731204D02*
G01*
X279113773Y-26734804D01*
X279137571Y-26740765D01*
X279160671Y-26749030D01*
X279182849Y-26759520D01*
X279203893Y-26772133D01*
X279223598Y-26786747D01*
X279241777Y-26803223D01*
X279258253Y-26821402D01*
X279272867Y-26841107D01*
X279285480Y-26862151D01*
X279295970Y-26884329D01*
X279304235Y-26907429D01*
X279310196Y-26931227D01*
X279313796Y-26955496D01*
X279315000Y-26980000D01*
X279315000Y-27480000D01*
X279313796Y-27504504D01*
X279310196Y-27528773D01*
X279304235Y-27552571D01*
X279295970Y-27575671D01*
X279285480Y-27597849D01*
X279272867Y-27618893D01*
X279258253Y-27638598D01*
X279241777Y-27656777D01*
X279223598Y-27673253D01*
X279203893Y-27687867D01*
X279182849Y-27700480D01*
X279160671Y-27710970D01*
X279137571Y-27719235D01*
X279113773Y-27725196D01*
X279089504Y-27728796D01*
X279065000Y-27730000D01*
X278115000Y-27730000D01*
X278090496Y-27728796D01*
X278066227Y-27725196D01*
X278042429Y-27719235D01*
X278019329Y-27710970D01*
X277997151Y-27700480D01*
X277976107Y-27687867D01*
X277956402Y-27673253D01*
X277938223Y-27656777D01*
X277921747Y-27638598D01*
X277907133Y-27618893D01*
X277894520Y-27597849D01*
X277884030Y-27575671D01*
X277875765Y-27552571D01*
X277869804Y-27528773D01*
X277866204Y-27504504D01*
X277865000Y-27480000D01*
X277865000Y-26980000D01*
X277866204Y-26955496D01*
X277869804Y-26931227D01*
X277875765Y-26907429D01*
X277884030Y-26884329D01*
X277894520Y-26862151D01*
X277907133Y-26841107D01*
X277921747Y-26821402D01*
X277938223Y-26803223D01*
X277956402Y-26786747D01*
X277976107Y-26772133D01*
X277997151Y-26759520D01*
X278019329Y-26749030D01*
X278042429Y-26740765D01*
X278066227Y-26734804D01*
X278090496Y-26731204D01*
X278115000Y-26730000D01*
X279065000Y-26730000D01*
X279089504Y-26731204D01*
X279089504Y-26731204D01*
G37*
D16*
X278590000Y-27230000D03*
M02*
