M48
; DRILL file {KiCad (5.1.4-0)} date Wednesday, April 14, 2021 at 10:14:31 PM
; FORMAT={-:-/ absolute / inch / decimal}
; #@! TF.CreationDate,2021-04-14T22:14:31-04:00
; #@! TF.GenerationSoftware,Kicad,Pcbnew,(5.1.4-0)
; #@! TF.FileFunction,Plated,1,2,PTH
FMAT,2
INCH
T1C0.0157
T2C0.0236
T3C0.0354
T4C0.0394
T5C0.0579
%
G90
G05
T1
X4.9551Y-1.1956
X4.9845Y-1.225
X4.9992Y-1.2616
X5.017Y-1.1767
X5.0448Y-1.2046
X5.0571Y-1.242
X6.4465Y-1.1763
X6.4465Y-1.2157
X6.4992Y-2.9412
X6.528Y-2.185
X6.6107Y-3.1488
X6.6385Y-3.1766
X6.6664Y-3.2044
X6.7321Y-2.9445
X6.7331Y-2.9031
X6.7331Y-2.9839
X6.759Y-1.2165
X6.8564Y-1.1783
X10.3722Y-2.1935
X10.4006Y-1.6088
X10.4819Y-1.4299
X10.526Y-1.3492
X10.6083Y-1.4582
X10.6368Y-1.4953
X10.8706Y-1.5238
X10.9556Y-1.7638
X10.9556Y-1.9238
X11.0006Y-2.1938
X11.1097Y-1.015
X11.1355Y-1.201
X11.2046Y-1.0801
X11.215Y-1.339
X11.2224Y-1.2764
X11.272Y-1.2672
X11.3098Y-1.2783
X11.3102Y-1.4126
X11.3518Y-1.2638
X11.3832Y-1.4781
X11.3832Y-1.5175
X11.3858Y-1.4331
X11.3949Y-1.2748
X11.4043Y-1.3406
X11.4072Y-1.0826
X11.4688Y-1.3438
X11.5081Y-1.0268
X11.6024Y-2.7309
X11.6035Y-2.1516
T3
X11.4177Y-2.4852
X11.5177Y-2.4852
X11.2002Y-2.4852
X11.3002Y-2.4852
X10.9827Y-2.4852
X11.0827Y-2.4852
T4
X11.0246Y-1.4296
X11.0246Y-1.6265
X11.5955Y-1.4296
X11.5955Y-1.5281
X11.5955Y-1.6265
T5
X5.1Y-3.4625
X5.1516Y-3.405
X1.725Y-2.7125
X2.475Y-1.9625
X2.725Y-1.8625
X5.3484Y-3.3853
X1.975Y-2.6125
X13.725Y-2.7125
X13.975Y-2.6125
X5.475Y-1.9625
X5.725Y-1.8625
X5.475Y-1.2125
X5.725Y-1.1125
X2.9438Y-3.4625
X3.1938Y-3.3625
X7.725Y-1.9625
X7.975Y-1.8625
X4.35Y-3.4625
X4.6Y-3.3625
X0.975Y-2.7125
X1.225Y-2.6125
X12.975Y-2.7125
X13.225Y-2.6125
X2.0063Y-3.4625
X2.2563Y-3.3625
X12.975Y-2.7125
X13.225Y-2.6125
X5.725Y-1.8625
X3.225Y-1.2125
X3.475Y-1.1125
X8.1937Y-3.4625
X8.4437Y-3.3625
X6.975Y-1.9625
X7.225Y-1.8625
X6.225Y-1.9625
X6.475Y-1.8625
X11.1Y-3.0875
X11.35Y-2.9875
X12.975Y-1.9625
X13.225Y-1.8625
X13.225Y-1.1125
X12.975Y-1.9625
X13.225Y-1.8625
X1.725Y-1.9625
X1.975Y-1.8625
X12.975Y-1.2125
X3.1Y-3.3625
X6.975Y-2.7125
X7.225Y-2.6125
X2.475Y-1.2125
X1.225Y-1.8625
X6.85Y-3.3625
X13.725Y-1.2125
X13.975Y-1.1125
X2.85Y-3.4625
X0.975Y-1.9625
X2.725Y-1.1125
X6.6Y-3.4625
X7.725Y-1.2125
X7.975Y-1.1125
X5.475Y-1.9625
X3.975Y-2.7125
X5.725Y-2.6125
X12.225Y-2.7125
X12.475Y-2.6125
X4.225Y-2.6125
X7.225Y-1.1125
X13.725Y-1.9625
X13.975Y-1.8625
X5.475Y-2.7125
X1.725Y-1.2125
X1.975Y-1.1125
X1.0687Y-3.4625
X1.3187Y-3.3625
X12.975Y-1.2125
X13.225Y-1.1125
X6.975Y-1.2125
X13.725Y-3.4625
X13.975Y-3.3625
X12.225Y-1.9625
X12.475Y-1.8625
X0.975Y-1.2125
X4.725Y-1.9625
X1.225Y-1.1125
X12.225Y-1.2125
X12.475Y-1.1125
X9.225Y-3.4625
X9.475Y-3.3625
X6.225Y-1.2125
X6.475Y-1.1125
X9.225Y-1.9625
X9.475Y-1.8625
X0.975Y-3.4625
X12.975Y-3.4625
X12.1Y-3.7375
X1.225Y-3.3625
X4.975Y-1.8625
X5.475Y-1.2125
X5.725Y-1.1125
X9.975Y-2.7125
X10.225Y-2.6125
X4.725Y-2.7125
X4.975Y-2.6125
X13.225Y-3.3625
X11.85Y-3.8375
X9.225Y-2.7125
X3.475Y-2.6125
X3.225Y-2.7125
X9.475Y-2.6125
X3.975Y-1.9625
X4.225Y-1.8625
X4.725Y-1.2125
X4.975Y-1.1125
X9.225Y-1.2125
X9.475Y-1.1125
X9.975Y-1.9625
X10.225Y-1.8625
X10.35Y-3.8375
X10.6Y-3.7375
X8.475Y-1.9625
X8.725Y-1.8625
X2.475Y-2.7125
X2.725Y-2.6125
X3.225Y-1.9625
X3.475Y-1.8625
X11.1Y-3.8375
X11.35Y-3.7375
X8.475Y-2.7125
X8.725Y-2.6125
X8.475Y-1.2125
X8.725Y-1.1125
X3.975Y-1.2125
X4.225Y-1.1125
X6.225Y-2.7125
X6.475Y-2.6125
X9.1312Y-3.4625
X9.3812Y-3.3625
X6.0375Y-3.4625
X6.2875Y-3.3625
X5.475Y-2.7125
X5.725Y-2.6125
X9.975Y-1.2125
X10.225Y-1.1125
X7.725Y-2.7125
X7.975Y-2.6125
X5.35Y-3.3625
T2
G00X11.1394Y-0.9835
M15
G01X11.1394Y-0.9598
M16
G05
G00X11.1394Y-1.1579
M15
G01X11.1394Y-1.1146
M16
G05
G00X11.4795Y-0.9835
M15
G01X11.4795Y-0.9598
M16
G05
G00X11.4795Y-1.1579
M15
G01X11.4795Y-1.1146
M16
G05
T0
M30
