G04 #@! TF.GenerationSoftware,KiCad,Pcbnew,(5.1.4-0)*
G04 #@! TF.CreationDate,2021-04-14T22:14:25-04:00*
G04 #@! TF.ProjectId,gorthage-truck,676f7274-6861-4676-952d-747275636b2e,rev?*
G04 #@! TF.SameCoordinates,Original*
G04 #@! TF.FileFunction,Legend,Top*
G04 #@! TF.FilePolarity,Positive*
%FSLAX46Y46*%
G04 Gerber Fmt 4.6, Leading zero omitted, Abs format (unit mm)*
G04 Created by KiCad (PCBNEW (5.1.4-0)) date 2021-04-14 22:14:25*
%MOMM*%
%LPD*%
G04 APERTURE LIST*
%ADD10C,0.120000*%
%ADD11C,0.150000*%
%ADD12C,4.089800*%
%ADD13C,1.852000*%
%ADD14C,3.150000*%
%ADD15R,2.102000X2.102000*%
%ADD16C,2.102000*%
%ADD17C,1.902000*%
%ADD18R,1.902000X1.902000*%
%ADD19R,0.702000X1.552000*%
%ADD20R,0.402000X1.552000*%
%ADD21C,0.752000*%
G04 APERTURE END LIST*
D10*
X290025000Y-38812500D02*
G75*
G03X290025000Y-38812500I-3000000J0D01*
G01*
X285025000Y-44712500D02*
X280925000Y-44712500D01*
X280925000Y-32912500D02*
X285025000Y-32912500D01*
X289025000Y-32912500D02*
X293125000Y-32912500D01*
X289025000Y-44712500D02*
X293125000Y-44712500D01*
X293125000Y-44712500D02*
X293125000Y-32912500D01*
X294525000Y-42612500D02*
X294825000Y-42912500D01*
X294825000Y-42912500D02*
X294225000Y-42912500D01*
X294225000Y-42912500D02*
X294525000Y-42612500D01*
X280925000Y-44712500D02*
X280925000Y-42312500D01*
X280925000Y-40112500D02*
X280925000Y-37512500D01*
X280925000Y-35312500D02*
X280925000Y-32912500D01*
X287025000Y-39312500D02*
X287025000Y-38312500D01*
X287525000Y-38812500D02*
X286525000Y-38812500D01*
D11*
X285521904Y-30782380D02*
X285521904Y-31591904D01*
X285569523Y-31687142D01*
X285617142Y-31734761D01*
X285712380Y-31782380D01*
X285902857Y-31782380D01*
X285998095Y-31734761D01*
X286045714Y-31687142D01*
X286093333Y-31591904D01*
X286093333Y-30782380D01*
X286521904Y-31734761D02*
X286664761Y-31782380D01*
X286902857Y-31782380D01*
X286998095Y-31734761D01*
X287045714Y-31687142D01*
X287093333Y-31591904D01*
X287093333Y-31496666D01*
X287045714Y-31401428D01*
X286998095Y-31353809D01*
X286902857Y-31306190D01*
X286712380Y-31258571D01*
X286617142Y-31210952D01*
X286569523Y-31163333D01*
X286521904Y-31068095D01*
X286521904Y-30972857D01*
X286569523Y-30877619D01*
X286617142Y-30830000D01*
X286712380Y-30782380D01*
X286950476Y-30782380D01*
X287093333Y-30830000D01*
X287855238Y-31258571D02*
X287998095Y-31306190D01*
X288045714Y-31353809D01*
X288093333Y-31449047D01*
X288093333Y-31591904D01*
X288045714Y-31687142D01*
X287998095Y-31734761D01*
X287902857Y-31782380D01*
X287521904Y-31782380D01*
X287521904Y-30782380D01*
X287855238Y-30782380D01*
X287950476Y-30830000D01*
X287998095Y-30877619D01*
X288045714Y-30972857D01*
X288045714Y-31068095D01*
X287998095Y-31163333D01*
X287950476Y-31210952D01*
X287855238Y-31258571D01*
X287521904Y-31258571D01*
X289045714Y-31782380D02*
X288474285Y-31782380D01*
X288760000Y-31782380D02*
X288760000Y-30782380D01*
X288664761Y-30925238D01*
X288569523Y-31020476D01*
X288474285Y-31068095D01*
%LPC*%
D12*
X142875000Y-71437500D03*
D13*
X137795000Y-71437500D03*
X147955000Y-71437500D03*
D14*
X123825000Y-64452500D03*
X161925000Y-64452500D03*
D12*
X123825000Y-79692500D03*
X161925000Y-79692500D03*
X180975000Y-33337500D03*
D13*
X175895000Y-33337500D03*
X186055000Y-33337500D03*
D12*
X161925000Y-71437500D03*
D13*
X156845000Y-71437500D03*
X167005000Y-71437500D03*
D12*
X257175000Y-33337500D03*
D13*
X252095000Y-33337500D03*
X262255000Y-33337500D03*
D12*
X257175000Y-52387500D03*
D13*
X252095000Y-52387500D03*
X262255000Y-52387500D03*
D15*
X294525000Y-41312500D03*
D16*
X294525000Y-38812500D03*
X294525000Y-36312500D03*
X280025000Y-41312500D03*
X280025000Y-36312500D03*
D12*
X142875000Y-52387500D03*
D13*
X137795000Y-52387500D03*
X147955000Y-52387500D03*
D14*
X123825000Y-45402500D03*
X161925000Y-45402500D03*
D12*
X123825000Y-60642500D03*
X161925000Y-60642500D03*
X142875000Y-33337500D03*
D13*
X137795000Y-33337500D03*
X147955000Y-33337500D03*
D14*
X123825000Y-26352500D03*
X161925000Y-26352500D03*
D12*
X123825000Y-41592500D03*
X161925000Y-41592500D03*
X333375000Y-71437500D03*
D13*
X328295000Y-71437500D03*
X338455000Y-71437500D03*
D14*
X314325000Y-64452500D03*
X352425000Y-64452500D03*
D12*
X314325000Y-79692500D03*
X352425000Y-79692500D03*
X333375000Y-52387500D03*
D13*
X328295000Y-52387500D03*
X338455000Y-52387500D03*
D14*
X314325000Y-45402500D03*
X352425000Y-45402500D03*
D12*
X314325000Y-60642500D03*
X352425000Y-60642500D03*
X333375000Y-33337500D03*
D13*
X328295000Y-33337500D03*
X338455000Y-33337500D03*
D14*
X314325000Y-26352500D03*
X352425000Y-26352500D03*
D12*
X314325000Y-41592500D03*
X352425000Y-41592500D03*
X76200000Y-90487500D03*
D13*
X71120000Y-90487500D03*
X81280000Y-90487500D03*
D12*
X238125000Y-90487500D03*
D13*
X233045000Y-90487500D03*
X243205000Y-90487500D03*
D12*
X28575000Y-90487500D03*
D13*
X23495000Y-90487500D03*
X33655000Y-90487500D03*
D17*
X290010000Y-63124500D03*
D18*
X292550000Y-63124500D03*
D17*
X284485000Y-63124500D03*
D18*
X287025000Y-63124500D03*
D17*
X278960000Y-63124500D03*
D18*
X281500000Y-63124500D03*
D12*
X333375000Y-52387500D03*
D13*
X328295000Y-52387500D03*
X338455000Y-52387500D03*
D12*
X352425000Y-90487500D03*
D13*
X347345000Y-90487500D03*
X357505000Y-90487500D03*
D12*
X333375000Y-90487500D03*
D13*
X328295000Y-90487500D03*
X338455000Y-90487500D03*
D12*
X266700000Y-100012500D03*
D13*
X261620000Y-100012500D03*
X271780000Y-100012500D03*
D12*
X235743750Y-90487500D03*
D13*
X230663750Y-90487500D03*
X240823750Y-90487500D03*
D12*
X211931250Y-90487500D03*
D13*
X206851250Y-90487500D03*
X217011250Y-90487500D03*
D12*
X171450000Y-90487500D03*
D13*
X166370000Y-90487500D03*
X176530000Y-90487500D03*
D14*
X152400000Y-83502500D03*
X190500000Y-83502500D03*
D12*
X152400000Y-98742500D03*
X190500000Y-98742500D03*
X200025000Y-33337500D03*
D13*
X194945000Y-33337500D03*
X205105000Y-33337500D03*
D12*
X30956250Y-90487500D03*
D13*
X25876250Y-90487500D03*
X36036250Y-90487500D03*
D12*
X200025000Y-98742500D03*
X66675000Y-98742500D03*
D14*
X200025000Y-83502500D03*
X66675000Y-83502500D03*
D13*
X138430000Y-90487500D03*
X128270000Y-90487500D03*
D12*
X133350000Y-90487500D03*
D19*
X284035000Y-29775000D03*
X290485000Y-29775000D03*
X284810000Y-29775000D03*
X289710000Y-29775000D03*
D20*
X289010000Y-29775000D03*
X285510000Y-29775000D03*
X288510000Y-29775000D03*
X286010000Y-29775000D03*
X288010000Y-29775000D03*
X286510000Y-29775000D03*
X287010000Y-29775000D03*
X287510000Y-29775000D03*
D21*
X284370000Y-28330000D03*
X290150000Y-28330000D03*
D12*
X304800000Y-100012500D03*
D13*
X299720000Y-100012500D03*
X309880000Y-100012500D03*
D12*
X285750000Y-100012500D03*
D13*
X280670000Y-100012500D03*
X290830000Y-100012500D03*
D12*
X352425000Y-71437500D03*
D13*
X347345000Y-71437500D03*
X357505000Y-71437500D03*
D12*
X333375000Y-71437500D03*
D13*
X328295000Y-71437500D03*
X338455000Y-71437500D03*
D12*
X314325000Y-71437500D03*
D13*
X309245000Y-71437500D03*
X319405000Y-71437500D03*
D12*
X285750000Y-80962500D03*
D13*
X280670000Y-80962500D03*
X290830000Y-80962500D03*
D12*
X257175000Y-71437500D03*
D13*
X252095000Y-71437500D03*
X262255000Y-71437500D03*
D12*
X238125000Y-71437500D03*
D13*
X233045000Y-71437500D03*
X243205000Y-71437500D03*
D12*
X219075000Y-71437500D03*
D13*
X213995000Y-71437500D03*
X224155000Y-71437500D03*
D12*
X200025000Y-71437500D03*
D13*
X194945000Y-71437500D03*
X205105000Y-71437500D03*
D12*
X180975000Y-71437500D03*
D13*
X175895000Y-71437500D03*
X186055000Y-71437500D03*
D12*
X352425000Y-52387500D03*
D13*
X347345000Y-52387500D03*
X357505000Y-52387500D03*
D12*
X314325000Y-52387500D03*
D13*
X309245000Y-52387500D03*
X319405000Y-52387500D03*
D12*
X238125000Y-52387500D03*
D13*
X233045000Y-52387500D03*
X243205000Y-52387500D03*
D12*
X219075000Y-52387500D03*
D13*
X213995000Y-52387500D03*
X224155000Y-52387500D03*
D12*
X200025000Y-52387500D03*
D13*
X194945000Y-52387500D03*
X205105000Y-52387500D03*
D12*
X180975000Y-52387500D03*
D13*
X175895000Y-52387500D03*
X186055000Y-52387500D03*
D12*
X352425000Y-33337500D03*
D13*
X347345000Y-33337500D03*
X357505000Y-33337500D03*
D12*
X333375000Y-33337500D03*
D13*
X328295000Y-33337500D03*
X338455000Y-33337500D03*
D12*
X314325000Y-33337500D03*
D13*
X309245000Y-33337500D03*
X319405000Y-33337500D03*
D12*
X238125000Y-33337500D03*
D13*
X233045000Y-33337500D03*
X243205000Y-33337500D03*
D12*
X219075000Y-33337500D03*
D13*
X213995000Y-33337500D03*
X224155000Y-33337500D03*
D12*
X157162500Y-90487500D03*
D13*
X152082500Y-90487500D03*
X162242500Y-90487500D03*
D14*
X100012500Y-83502500D03*
X214312500Y-83502500D03*
D12*
X100012500Y-98742500D03*
X214312500Y-98742500D03*
X114300000Y-90487500D03*
D13*
X109220000Y-90487500D03*
X119380000Y-90487500D03*
D14*
X95250000Y-83502500D03*
X133350000Y-83502500D03*
D12*
X95250000Y-98742500D03*
X133350000Y-98742500D03*
X78581250Y-90487500D03*
D13*
X73501250Y-90487500D03*
X83661250Y-90487500D03*
D12*
X54768750Y-90487500D03*
D13*
X49688750Y-90487500D03*
X59848750Y-90487500D03*
D12*
X142875000Y-71437500D03*
D13*
X137795000Y-71437500D03*
X147955000Y-71437500D03*
D12*
X123825000Y-71437500D03*
D13*
X118745000Y-71437500D03*
X128905000Y-71437500D03*
D12*
X104775000Y-71437500D03*
D13*
X99695000Y-71437500D03*
X109855000Y-71437500D03*
D12*
X85725000Y-71437500D03*
D13*
X80645000Y-71437500D03*
X90805000Y-71437500D03*
D12*
X66675000Y-71437500D03*
D13*
X61595000Y-71437500D03*
X71755000Y-71437500D03*
D12*
X47625000Y-71437500D03*
D13*
X42545000Y-71437500D03*
X52705000Y-71437500D03*
D12*
X28575000Y-71437500D03*
D13*
X23495000Y-71437500D03*
X33655000Y-71437500D03*
D12*
X161925000Y-52387500D03*
D13*
X156845000Y-52387500D03*
X167005000Y-52387500D03*
D12*
X142875000Y-52387500D03*
D13*
X137795000Y-52387500D03*
X147955000Y-52387500D03*
D12*
X123825000Y-52387500D03*
D13*
X118745000Y-52387500D03*
X128905000Y-52387500D03*
D12*
X104775000Y-52387500D03*
D13*
X99695000Y-52387500D03*
X109855000Y-52387500D03*
D12*
X85725000Y-52387500D03*
D13*
X80645000Y-52387500D03*
X90805000Y-52387500D03*
D12*
X66675000Y-52387500D03*
D13*
X61595000Y-52387500D03*
X71755000Y-52387500D03*
D12*
X47625000Y-52387500D03*
D13*
X42545000Y-52387500D03*
X52705000Y-52387500D03*
D12*
X28575000Y-52387500D03*
D13*
X23495000Y-52387500D03*
X33655000Y-52387500D03*
D12*
X161925000Y-33337500D03*
D13*
X156845000Y-33337500D03*
X167005000Y-33337500D03*
D12*
X142875000Y-33337500D03*
D13*
X137795000Y-33337500D03*
X147955000Y-33337500D03*
D12*
X123825000Y-33337500D03*
D13*
X118745000Y-33337500D03*
X128905000Y-33337500D03*
D12*
X104775000Y-33337500D03*
D13*
X99695000Y-33337500D03*
X109855000Y-33337500D03*
D12*
X85725000Y-33337500D03*
D13*
X80645000Y-33337500D03*
X90805000Y-33337500D03*
D12*
X66675000Y-33337500D03*
D13*
X61595000Y-33337500D03*
X71755000Y-33337500D03*
D12*
X47625000Y-33337500D03*
D13*
X42545000Y-33337500D03*
X52705000Y-33337500D03*
D12*
X28575000Y-33337500D03*
D13*
X23495000Y-33337500D03*
X33655000Y-33337500D03*
M02*
